<?xml version="1.0" encoding="utf-8"?>
<!-- Generator: Adobe Illustrator 19.0.0, SVG Export Plug-In . SVG Version: 6.00 Build 0)  -->
<svg version="1.1" id="Layer_1" xmlns="http://www.w3.org/2000/svg" xmlns:xlink="http://www.w3.org/1999/xlink" x="0px" y="0px"
	 width="1400px" height="980px" viewBox="0 0 1400 980" style="enable-background:new 0 0 1400 980;" xml:space="preserve">
<style type="text/css">
	.st0{clip-path:url(#XMLID_250_);}
	.st1{fill:#E8624B;}
	.st2{fill:#F5F2F5;}
	.st3{fill:#5B7D7D;}
	.st4{fill:#BCD8E3;}
	.st5{fill:#483B35;}
	.st6{fill:#2D1B21;}
	.st7{fill:#8C2724;}
	.st8{fill:#DA6958;}
	.st9{fill:#EF9B75;}
	.st10{fill:#E16549;}
	.st11{fill:#2C1C1F;}
	.st12{fill:#7F7271;}
	.st13{fill:#B0E0DE;}
	.st14{fill:#F4F5F5;}
	.st15{fill:#40423F;}
	.st16{fill:#423F34;}
	.st17{fill:none;}
	.st18{fill:#231F20;}
	.st19{fill:#7B2E23;}
	.st20{fill:#AF684B;}
	.st21{fill:#753D2A;}
	.st22{fill:#DCD0C0;}
	.st23{fill:#FFFFFF;}
	.st24{fill:#CFBFB0;}
	.st25{fill:#96978F;}
</style>
<g id="XMLID_228_">
	<defs>
		<rect id="XMLID_227_" width="1400" height="980"/>
	</defs>
	<clipPath id="XMLID_250_">
		<use xlink:href="#XMLID_227_"  style="overflow:visible;"/>
	</clipPath>
	<g id="XMLID_2_" class="st0">
		<rect id="XMLID_248_" class="st1" width="1400" height="980"/>
		<path id="XMLID_254_" class="st2" d="M1390.5,202.2c-11.2,1.7-9.5,3.1-19.7-0.4c-6.4-2.3-13-3.5-19.8-3.6c-3.3,0-5.8,1.2-7.5,3.7
			c-1.1,1.8-2.7,2.7-4.8,2.8c-4.9-2.3-9.9-4.3-15-6.1c-30.7-9.5-64.8,6.2-88.2,25.2c-24.6,20-35.2,52-34.8,83.5
			c0.1,6.8,1.8,8.8-2.3,12.5c-3.4,0.9-6.7,1.8-10,2.9c-6.5,3-11.3,7.8-14.4,14.3c-2.3,4.6-1.6,10-3.6,14.4c-1.9,0.6-3.5,1.6-4.9,2.9
			c-0.2,1.5-0.5,3-0.7,4.5c0.2,5.4,0.3,10.8,0.4,16.2c0.4,2.4-0.4,4-2.5,4.6c-0.4,4.1-0.8,6.6,0,11.3c1.2,6.8,1.2,18.2,8.2,21.5
			c-0.2,4.6-11.3,9.1-14.8,11.9c-8.5,6.7-14.5,15-21.4,23.2c-4.6,5.4-8.2,7.8-9,14.7c-0.5,4.3,1.9,6.9-0.6,10.9
			c-20.7-1.3-43.1,8-60.8,18.3c-11.4,6.6-14.8,9.6-17.1,22.5c-1,5.5-1.9,15.3-8.3,17c-6-6.4-5.2-15.5-8.7-23.1
			c-4-8.7-11.8-13-20.5-16.4c-14.3-5.6-23.5-10.1-39.4-5.5c-3.9-9.2-19.8-8.9-27.8-7.3c-9.2,1.8-29,11.6-34.3,19.9
			c-3.8,5.9,0.5,12-1.7,18.3c-6.2,0.6-10.2,2.9-14.5,7c-6,5.7-7.1,6.9-15,1.6c-8-5.3-13.5-6-23.4-7.7c-10.1-1.7-19.2-0.9-29,2.2
			c-23.3,7.3-43.8,21.1-68.2,21.1c-5.7,0-11.6,0.4-17.3,0.1c-5.5-0.3-8.6-2.5-13.7-4.5c-9.7-3.9-20.3-9.4-30.7-10.4
			c-9.3-0.9-18.2,0-27.5-1.5c-12.7-2-23.1-5.1-34.8-10.6c-9.6-4.5-19.6-10.6-30-13.4c-9.7-2.6-18.4-4.6-28.1-7.8
			c-5-1.7-11.3-2.1-15.4-4.6c-3-1.8-4.7-6.6-7.6-8.5c-3.7-2.4-9-3.4-13.3-5.5c-12-6-21.7-14-34.6-17.2
			c-14.1-3.5-27.8-12.8-39.9-21.1c-5.7-3.9-10.4-9.9-15.3-14.8c-6.8-6.7-11.3-16.3-18.2-22.3c-7.3-6.3-17.8-8-27.2-8
			c-6.9,0-11.9,1.9-14.1-5.8c-1.6-5.6,1.5-14.6-5-17.9c-3.9-2-7.4,1.6-10.4-1.9c-3.8-4.3-2.1-13-5.7-18.1c0-0.7-0.1-1.4-0.2-2.1
			c-0.6-3.6-3.2-7-4.6-10.4c-2.8-6.9-3.6-9.6-11.4-9.7c-3.3-0.1-12.4,1.9-14.1-1c-1.6-2.6,0-9.8-1-13c-1.5-4.9-4.5-10.3-7.9-14.1
			c-5.8-6.4-8.3-3.9-15-6.1c0-3.2,1.7-6.4,1.9-9.9c0.1-2,0-4,0-5.9c0-4.6-0.3-9.4,0-14c0.3-6.4,2.9-11.9,1.7-18.4
			c-1.9-10.4-9.2-17.5-18.9-21.5c-4.5-1.9-9.7-2.5-14.6-2.2c-1.8,0.1-2.9,1.1-4.5,0.8c-2.5-0.5-5.2-3.2-7.5-4.2
			c-3.8-1.7-9.3-3.3-13.3-4.1c-9-1.8-21.9-1.5-29.6,3.4c-3.2,2-5.6,4.8-7.7,7.9c-2.9,0-5.5,0.2-8.3,1.7c-1.4,0.7-2.7,1.6-4.1,2.5
			c-0.5-0.6-1-1.1-1.7-1.5c-2.7-1.5-12.5-1.2-15.6-0.6c-6.4,1.3-12.7,7.8-18.3,13.3c-11.9-1.8-13.8-16.9-17.4-26
			c-5.1-13.2-18.4-12.7-26.5-1.6c-5.6-3.5-1-13.1,0.2-17.8c1.7-6.5-0.6-11,3.5-16.5c4.7-6.3,6.5-5.8,6.2-14.3
			c-0.3-9.4-3.5-10.6-9.2-16.5c-4.2-4.4-2.6-7.9-2.8-14.3c-0.3-6.2-1.1-6.9-5.3-11.2c-8.9-9.1-10.8-19.2-24.7-22.6
			c-7.4-1.8-10.7,2-12.1-6.3c-1.5-8.7,1.8-17.4-4.2-25.3c-10.4-13.7-25.3-3.5-37.7-9.4c-5.9-2.8-7.8-7.3-14.9-7.7
			c-7.2-0.4-12.8,0.4-19.5,2.7c-3.1,1.1-5.8,2.3-8.3,3.7V980h1400V201.6C1396.8,201.5,1393.6,201.8,1390.5,202.2z"/>
		<g id="XMLID_247_">
			<path id="XMLID_151_" class="st3" d="M843.8,837.9c10.7-1.3,19.9-8,29.9-11.3c19.7-6.4,35.7-18,54.3-27.1
				c32.5-15.9,63.5-34.6,95.9-50.5c10-4.9,15.4-9,22.3-17.8c4.9-6.3,9.4-12.2,15.3-17.5c9.8-8.9,19.5-18.6,31.3-25
				c6.5-3.5,13.3-3,19.6-6.6c4.3-2.5,7-6.6,11.1-9.3c5.3-3.5,11.7-4,17.5-5.8c8.5-2.6,16-6,24-9.8c9.4-4.4,13.9-9.7,20.8-17.2
				c8.3-8.9,15.7-18.4,24.1-27.2c3.3-3.5,6.9-5,10.8-7.5c4.5-3,7.1-7.1,11.3-10.4c8.5-6.8,24.3,1.6,35.1-0.1
				c8.4-1.3,17.4-3.8,25.4-5.7c5.8-1.4,12.5-3.2,17.8-5.8c10-4.9,19.1-11.9,27.9-18.7c16.5-12.9,33.7-24.7,51-36.5
				c10.4-7.1,22.6-11.4,32.3-18.6c7-5.2,15.1-7.3,21.8-13.9c5.2,20.6,7.5,42.2,11.2,63.1c5.1,29.1,9.4,58.2,12.1,87.7
				c6.3,66.5,13.4,132,9.8,198.9c-1,17.9-2.5,35.9-5.5,53.6c-1.1,6.6-1.4,16.7-2.9,23.6c-1.1,4.9,0.2,4.5-5.1,5.8
				c-6.3-0.2-12.6-0.3-18.9-0.2c-10,0.4-19.9,0.3-29.9,0c-32.7-0.8-65-7-97.5-10.4c-45.6-4.8-91-3.6-136.6-5.4
				c-33.6-1.3-66.9-1.8-100.5-2c-31.7-0.2-62-3.5-93.3-7.8C940.9,896.2,879.8,893.5,843.8,837.9z"/>
			<path id="XMLID_221_" class="st4" d="M1240.1,595.1c-4.2,0.4-3.5,10.5-2.8,13.3c1.4,0.2,2.7,0.3,4.1,0.4
				c1.7,6.7-0.9,12.9-4.3,18.5c-2.9,4.8-5.9,6.3-10,9.7c-6,5-9.7,12-13.6,18.5c-1.1,1.9-2.3,4.3-3.2,6.4c-0.9,2.2-2.5,4.6-3,6.6
				c2,0.5,5.5-3.2,7.3-4.3c3.3-2,6.5-4.2,9.9-6.1c4.6-2.6,9.1-5.2,14.2-6c4.9-0.7,10.4-3.4,14.8-6c1.9-1.1,3.3-3.1,5.1-4.2
				c1.6-1,3.6-0.8,5.2-2c-8.2,5.5-16.1,10.7-22.2,18.3c-2,2.5-4.2,5.2-6.6,7.4c-3.5,3.2-9.5,5.2-12.5,8.9c3.2-0.5,10.6-8.5,8.3-11.8
				c-1.9,0.5-5.6,4.4-7.2,5.9c-3.9,3.5-7.9,5-12.4,7.5c-3.2,1.8-6.5,4.7-10.1,5.7c-3.1,0.9-5.7-0.6-8.3,1.7
				c-2.4,2.2-1.9,4.9-4.4,6.8c-3.8,2.9-7.1,5-10.3,8.9c-2,2.4-3.9,3.9-6.2,6c-2.6,2.3-7.8,10.3-11.3,9.9c0.2-3.4,3.2-5.9,5.3-8.4
				c3.6-4.2,6.8-8.6,10.3-12.9c3.6-4.5,6.8-11,11.3-14.6c-7.6,6.1-15.8,11.9-23.9,17.3c-2.7,1.8-5.9,3-8.7,4.6
				c-1.5,0.9-3.1,2.6-4.8,3.1c-2.4,0.8-4.9-0.4-7.3,0.3c-3.9,1.2-5.9,6.6-8.4,9.6c-2.2,2.6-4.8,4.8-7.5,6.9
				c-7.5,5.8-14,11.7-19.8,19.3c2.6,0.3,5.3,0.3,7.9,0c2.3-0.3,6-2.3,8.2-1.2c0.3,4.4-10.7,13-13.4,15.8c-4.5,4.8-9.6,9.8-14.9,13.8
				c-2.1-3.6,2.5-9.6,4.4-12.4c3-4.5,9.1-9.7,9-15.5c-3.4-2.2-6.4,1.7-9.4,2.5c-3.5,0.9-6.7-1-10.2-1.3c-0.1-2.2,1.8-4.1,3.3-5.6
				c4.8-5.1,10.8-8.7,15.5-14c7.9-8.9,15-18.9,24.1-26.6c5.7-4.9,11.1-10,17.6-13.9c6.6-3.9,12.4-7.5,17.2-13.7
				c-13.2-1.8-25.5,11.3-35.6,17.7c-2,1.3-4.5,3.1-6.8,3.5c-3.3,0.6-5.5-0.8-9.1,0.4c-6.2,2.2-10.9,7-15.8,10.9
				c-4.2,3.2-11.4,4.3-14.8,8.4c7.1-3.5,12.8-10.1,19.6-14.3c4.7-2.9,9.6-5.6,14.4-8.4c4.4-2.5,8.5-5.4,12.7-8.1
				c8.3-5.3,16.6-9.2,25.6-13c6-2.6,12.6-3.2,18.5-6c7.9-3.7,17.3-10.9,22.3-18c1.8-2.6,3.1-5.2,5.5-7.5c2.4-2.3,6.1-3.9,7.4-7.1
				c1.5-3.7,0.2-3.6,3.2-8.4c3.3-5.3,8.1-8.6,11.6-13.3c1-1.3,0.9-3,2.1-4.5C1228.1,599,1231.5,595,1240.1,595.1z"/>
			<g id="XMLID_226_">
				<path id="XMLID_245_" class="st5" d="M1423.1,767.9c-0.3-14.1-1.7-27.9-4-41.8c-1.3-8.2-4.6-22.2-1.2-30.5
					c-3.9,5.2-8.2,10-12.9,14c-0.9,0.7-1.7,1.5-2.5,2.4c0.8-1.4,1.6-2.8,2.1-4.3c1.3-3.7,3.8-6.7,2.6-10.7c-0.4-1.4-2.4-2.5-3.7-1.5
					c-2.8,2.1-4.9,4.6-6.7,7.7c-1.5,2.7-2.7,6.4-5.1,8.5c-0.3-0.3-0.7-0.7-1-1c-1.2-1.1-3-0.9-3.9,0.5c-1.1,1.7-2.7,4-4.5,5.9
					c0,0,0,0,0,0c-0.9-0.9-4.6-0.3-5.8-0.2c-0.8,0-1.7-0.1-2.7-0.2c0.1-0.1,0.1-0.2,0.2-0.2c2.7-3.3,4.3-8.1,8.6-9.5
					c0.7-0.2,0.4-1.2-0.3-1.1c-3.6,0.6-6.5,2.8-9,5.2c-1.6,1.6-3.4,3-5.1,4.4c-4.6-0.9-9.4-1.5-12.3,1.3c-1.6,1.6-1.2,2.2-3.3,3.1
					c-1,0.4-3.2,1.1-4.4,1.5c-3.4,1-7,1.1-10.4,2.3c0.1,0,0.1-0.1,0.2-0.1c0.7-0.3,0.4-1.3-0.2-1.5c-1-0.4-2.2-0.1-3.2,0.5
					c-0.5-0.9-1.9-0.7-3.8-1.1c-2.3-0.5-3.9-1.3-6.5-1.8c-1.6-5.7,3.1-11.2,6.5-15.4c2.9-3.6,8.1-5,9.6-9.6
					c-2.8-1.3-9.2,1.5-11.9,2.9c-3.4,1.8-5.4,5.1-9,6.9c-6.6,3.2-13.2,5.2-18.8,10c-8.8,7.6-18.7,17.2-30.5,19.1
					c-0.8,1.9-0.6,5.2,0,7.2c2.5,0.3,5.6,0.5,7.2,2.4c0.7,0.8,0.4,4.9,0,5.9c-0.8,2-2,1.9-3.7,3.2c-3,2.3-5.9,5.9-8.3,8.8
					c-1.9,2.3-1.9,3.6-2.9,6.8c-1.1,3.4-2.1,4.3-4.6,6.3c-5.4,4.4-2.9,13-7.4,17.4c-0.6,0.6-3.8,2.8-4.5,3.3c-2.1,1.5-3.4,1-5.6,1.7
					c-5.3,1.7-9.1,6.5-10.6,11.7c-1.2,4-2.5,7.6-4.2,11.4c-1,2.3-2.5,8.7-5,9.5c4.6,2,9,5,13.3,7.4c13.8,7.7,27.1,16.1,40.3,24.6
					c12.7,8.2,25.6,16.1,38.7,23.7c12.3,7.2,24.6,14.9,38.2,19.5c14.9,5.1,37.2,12.6,47.4-3.4c4.7-7.4,9-15,14-22.2
					c6.9-10,11.3-19.8,12.1-32.3C1426.4,820.3,1423.7,793.9,1423.1,767.9z M1392,719.7c-1.9,1.6-5.1,4-7.5,3c0.5-0.7,1-1.4,1.5-2.2
					c1.1-1.6,2.2-3,3.4-4.5c0.1,0.1,0.2,0.2,0.4,0.3c0.9,0.8,1.9,0.9,3,0.4c0.3-0.1,0.6-0.3,0.8-0.5
					C1393,717.4,1392.5,718.6,1392,719.7z"/>
				<path id="XMLID_242_" class="st5" d="M1418.4,694.4c-0.2,0.4-0.3,0.7-0.5,1.1c3.6-4.9,6.9-10,9.7-15
					C1417.5,694.2,1417.9,694.3,1418.4,694.4z"/>
			</g>
			<path id="XMLID_240_" class="st5" d="M1413.5,667.5c-2.6-1.2-5.7,0.3-8.2,1.2c-3.6,1.3-6.2,2.9-8.8,5.9c-2,2.2-3.4,4.3-6.5,4.5
				c-0.6-0.1-1.3-0.1-2-0.1c0-0.1,0.1-0.1,0.1-0.2c1.9-2.7,3.7-6.2,2.5-9c-0.7-1.7-2.2-2.3-3.9-1.6c-3.8,1.6-6.8,4.6-10.4,6.7
				c-3.1,1.7-4.8,3.7-5.8,7.1c-0.6,2.2-0.8,4.3-2.1,6.3c-1.3,2-3.2,3.7-4.7,5.5c-3.1,3.5-6.4,6.4-9.8,9.5c-0.8,0.5-0.2,2.1,1,1.5
				c6-3.1,12.5-7.4,16.9-12.8c0.1,0,0.1,0,0.2,0c3.7,0.7,6.4-0.4,9-3c1.1-1.2,2.2-3,3.7-3.8c0.7-0.3,1.4-0.5,2.1-0.5
				c0.7,0,1.3,0.1,1.8,0.1c4.3,0.5,6.1,4.8,11,3.8c3.6-0.7,5.1-3.8,6.6-6.8c2.1-4.2,6.4-6.4,8.4-10.6
				C1415.1,670,1414.9,668.2,1413.5,667.5z M1383.5,676.4c-0.2,0.3-0.5,0.6-0.7,0.9c-0.2-0.1-0.4-0.1-0.6-0.2
				c0.4-0.3,0.8-0.5,1.1-0.8C1383.4,676.3,1383.5,676.3,1383.5,676.4z"/>
			<path id="XMLID_233_" class="st5" d="M1411.4,632.3c-2.7,1.7-5.1,3.5-6.6,6.4c-1.3,2.4-1.8,5.2-2.8,7.7c0,0,0,0.1-0.1,0.2
				c-0.1,0.2-0.2,0.4-0.3,0.6c-1.3,2.7-3.8,4-5.7,6.2c-0.7,0.8-1.2,1.7-1.7,2.6c-1.3-0.1-2.6,0.4-3.5,1.4c-1.2,1.3,1,3.1,2,1.5
				c0.1-0.1,0.2-0.2,0.2-0.3c-0.2,0.6-0.5,1.1-0.7,1.7c-0.5,1.3,0.3,2.7,1.5,3.4c0,0.1-0.1,0.2-0.1,0.3c-0.4,0.9,0.7,1.5,1.4,1.2
				c0.7,1.4,2.9,2.4,4.5,1c1.6-1.3,2.2-2.6,2.3-4.7c0-1.2-0.9-2.4-2-2.7c2.1-2.7,4.8-4.6,6.6-7.7c1.1-1.9,1.6-4,2.3-6
				c0.4-1.1,0.8-2.1,1.3-2.9c1.8-1.7,3.1-3.7,4.8-5.5C1416.7,634.4,1414,630.5,1411.4,632.3z"/>
			<path id="XMLID_230_" class="st5" d="M1385.6,664.4c-1.1,0.1-2.3,0.4-3.1,1.3c-0.8,0.9-1.3,2.3-0.6,3.4c0.2,0.4,0.8,0.6,1.2,0.3
				c0.4-0.3,0.6-0.5,0.9-0.9c0.1-0.2,0.3-0.4,0.5-0.6c0.5-0.5,0.8-0.9,1.5-1.2c0.5-0.2,0.9-0.7,0.8-1.3
				C1386.6,664.9,1386.1,664.4,1385.6,664.4z"/>
			<path id="XMLID_231_" class="st5" d="M1392.3,690.3c-1.8,1.8-5.7,4.1-4.3,7.2c0.2,0.5,1,0.5,1.3,0c0.6-1.1,1-2.1,1.9-3
				c0.9-0.9,1.9-1.7,2.8-2.5C1394.9,690.9,1393.3,689.3,1392.3,690.3z"/>
			<path id="XMLID_234_" class="st5" d="M1349.9,712.9c-0.9-0.7-2.2,0.1-2.7,0.9c-0.6,0.9-0.5,2.1-0.2,3c0.4,1.4,2.5,0.8,2.1-0.6
				c-0.1-0.3-0.1-0.6-0.1-0.9c0-0.2,0-0.3,0.1-0.4c0,0,0.1-0.1,0.1-0.1c0,0,0.2-0.1,0.2-0.1c0.4-0.2,0.6-0.4,0.8-0.8
				C1350.4,713.6,1350.3,713.2,1349.9,712.9z"/>
			<path id="XMLID_246_" class="st5" d="M1259.4,770.4c-0.2-0.7-0.9-1.4-1.7-1.1c-11.7,3.3-16.5,18.8-28.4,21.6
				c-2.5,0.6-2.1,5,0.6,4.6c0.1,0,0.1,0,0.2,0c0.1,0.4,0.1,0.7,0.2,1.1c0.2,1.2,1.4,1.7,2.5,1.9c5.2,0.7,10-6.8,13-10
				c4.1-4.3,9.3-6.2,12.9-10.4c0.3-0.1,0.6-0.3,0.7-0.7c0.2-0.3,0.4-0.7,0.5-1c0.4-0.6,0.8-1.2,1.1-1.9c0.1-0.1,0.1-0.2,0.2-0.3
				c0,0,0,0,0,0c0.1-0.2,0.2-0.4,0.3-0.6C1262.3,771.8,1260.9,770.6,1259.4,770.4z M1250,778.9c1.7-1.9,3.6-3.7,5.6-5.2
				C1254.2,776,1252.2,777.5,1250,778.9z"/>
			<path id="XMLID_237_" class="st5" d="M1237.9,772.9c-1,1.2-2.2,1.9-3.5,2.7c-0.9,0.5-2.5,1.3-2.4,2.5c0,0.2,0.2,0.5,0.4,0.5
				c1.2,0.2,2.4-1.1,3.4-1.7c1.3-0.8,2.5-1.6,3.4-2.7C1240,773.3,1238.7,772,1237.9,772.9z"/>
			<path id="XMLID_238_" class="st5" d="M1230.4,778.9c-5,5.9-13.5,8.1-19.6,12.7c-2.6,2-10.1,8.9-4.7,12c0.8,0.4,1.6,0.3,2.3-0.3
				c1.7-1.5,2.2-4.1,4-5.8c2-2,4.4-3.5,6.8-5.1c2.3-1.6,4.8-2.8,7-4.4c2.8-2,3.8-5.3,5.7-8C1232.4,779.2,1231.1,778.1,1230.4,778.9z
				"/>
			<path id="XMLID_229_" class="st4" d="M1285.1,670.1c13.4-9.1,22.4-23.5,34.3-34.3c3.5-3.2,7.9-5.2,10.6-9.1
				c4-5.7,8-12.1,13.5-16.6c3.9-3.2,8.2-4,12.3-6.3c7.3-4.2,13-9.7,19.2-15.4c4.1-3.8,7.9-8.3,12.5-11.5c2.6-1.8,5.6-2.9,8.3-4.8
				c5.2-3.7,11.1-7.6,15.8-12c2.8-2.7,5.3-4.7,8.6-6.7c2-1.3,3.7-3.2,5.8-4.3c-0.7,1.6-2.2,0.5-3.6,1c-2,0.7-3.7,2.5-5.5,3.8
				c-7.5,5.2-15.1,9.5-22.8,14.2c-3.6,2.2-6.9,3.5-10.3,5.9c-4.3,3-9,3.2-13.4,5.5c0.1-1.9,0.7-3.5,1.6-5.1c0.9-1.5,3.4-2.6,3-4.6
				c-5.2-1.2-8.5,2-12.8,4.3c-4.3,2.3-7.7,5.1-11.8,7.5c-1.7,1-3.1,1.5-4.5,2.9c-1.6,1.6-2.4,4.2-4.1,5.8c-1.6,1.4-4.1,2-5.9,3.1
				c-5.2,3.1-9.1,8.9-12.8,13.5c4.2,2.5-3.2,12.8-4.9,15.9c-2.6,4.7-3.1,8.5-7.2,12.1c-5.2,4.6-9.7,9.9-15,14.3
				c-2.5,2-5.8,3.5-7.9,5.8c-3.1,3.5-6.1,6.2-9.5,9.6c-6.4,6.5-13.6,12.3-20,18.8c-6.9,7-13,14.6-20.4,21.3
				c-5.3,4.8-10.9,10.2-16.9,14.3c-5.2,3.5-10.2,5.8-14.2,10.7c-3.3,3.9-6.8,7.6-9.3,12c2.6-4.1,6.5-7.2,10-10.4
				c9-8.3,17-17.6,25.9-26c6.3-5.9,13.7-8.7,20.7-13.7c6-4.3,11.5-8.9,18-12.5c2.1-1.2,3.1-2.4,4.8-3.7
				C1278.2,674.6,1283.9,670,1285.1,670.1z"/>
		</g>
		<g id="XMLID_148_">
			<g id="XMLID_142_">
				<path id="XMLID_4_" class="st3" d="M99.8,657.8c11.8,0,24.1,1.1,35.9,0.2c14.7-1.2,29.6-4.6,44.2-6.9
					c13.7-2.1,26.6-5.3,40.4-5.2c9.7,0.1,19.7,0.6,29.4,0.1c6.8-0.4,13-3.5,19.3-6c11-4.3,21.3-7.9,32.7-11.3
					c10.5-3.2,21.5-7.1,32.1-9.2c9-1.7,19.1-0.7,28.2-0.6c12.9,0.1,23.3-1.6,35.5-6.1c11.9-4.4,24.3-5.1,36.7-6.6
					c13.3-1.6,27.2-4.4,39.9-8.3c16.3-5,33.5-6.1,49.4-12c10.8-4,22.1-6.2,33-9.7c6.8-2.2,14.6-5.8,20.8-7.6
					c12-3.4,22.8-6.8,35.3-6.7c25.4,0.2,48.3-13.2,75-12.1c7,0.3,8.6,5.1,15,6.3c7.4,1.4,11.4,0.6,18,5.7c3.7,2.8,4.5,4.5,8.8,6.2
					c4,1.5,8.3,1.8,12.3,3.7c3.2,1.5,6,3.6,9.5,4.6c2.8,0.3,5.5,0.6,8.3,1c3.1,2.5,6.1,5.2,9.1,7.9c4.4,3.5,12.2,11.4,17.9,12.9
					c2.7,0.7,6.1-0.2,9,0.4c4.2,0.9,8.9,3.2,13,4.6c6.7,2.4,13.4,4.4,19.9,6.7c8.8,3.1,16.2,8.5,24.8,12.7
					c11.6,5.6,20.7,15.5,32.5,20.7c5.7,2.5,11.6,3,17.3,5.6c4.1,1.9,8.4,4.8,12.6,6.8c6.4,3.2,12,7.2,18.1,10.7
					c6.4,3.7,14.5,5.3,20.9,9.5c4.4,2.8,5.8,5.1,11.2,7c6.3,2.2,12.4,2.1,18.5,5c8,3.7,13.7,5.2,22.5,6.8
					c14.7,2.6,27.1,9.4,40.1,16.3c8.1,4.2,16.2,9.4,24.4,13.1c7.7,3.6,13.9,4.1,21.4,9.1c7.7,6.6,16,12.4,24.9,17.4
					c10.7,4.9,21.7,9.2,32.9,12.7c38.8,13.2,80.3,20.3,118,36.4c16.2,6.9,31.3,16,47.6,22.8c16.8,7,34.6,16.8,52.4,21.2
					c15.2,3.8,30.6,7.4,45.5,12.2c11.9,3.8,23.3,9.2,35.4,12.6c6.9,2,15.2,1.5,21.4,3.8c1.1,32.3,9.1,65.3,15.2,96.9
					c-0.1-0.8,8.6,30,5.6,36.7c-4.3,9.7-30.5,13.8-38.2,15.2c-29.7,5.6-59.6,11.1-89.7,14.5c-72.4,8.1-145,7.8-217.2,18
					c-72.1,10.2-143.7,19.5-216.4,25.3c-86.5,6.9-172.4,19.1-258.9,25.7c-79.1,6-158.7,5.9-238,9.8c-50.6,2.5-100.2,3.4-150.6-1.8
					c-24.7-1.7-48.9-6.3-72.5-13.7c-23.2-9.6-41.8-24.8-55.6-45.8c-23.9-32.9-38.5-77.2-54-114.4c-9.4-22.6-18.6-45.2-27.7-67.9
					c-9.3-20.7-17.1-42-23.3-63.8c-4.7-19.9-8-44.2-0.4-64.1c6.7-17.4,19.8-33.1,33-45.9c4.6-4.5,5-3,5.4-10
					C88.3,678.2,85.4,667,99.8,657.8z"/>
			</g>
			<g id="XMLID_222_">
				<path id="XMLID_232_" class="st4" d="M1491.9,1005.7c3-6.7-5.8-37.4-5.6-36.7c-6.1-31.6-14.1-64.7-15.2-96.9
					c-6.2-2.3-14.5-1.9-21.4-3.8c-12-3.4-23.5-8.8-35.4-12.6c-14.9-4.8-30.3-8.4-45.5-12.2c-17.7-4.4-35.5-14.2-52.4-21.2
					c-16.3-6.8-31.4-15.8-47.6-22.8c-37.7-16.1-79.2-23.2-118-36.4c-11.3-3.5-22.2-7.8-32.9-12.7c-8.8-5-17.1-10.8-24.9-17.4
					c-7.5-5-13.6-5.5-21.4-9.1c-8.2-3.8-16.4-8.9-24.4-13.1c-13-6.9-25.4-13.6-40.1-16.3c-8.8-1.6-14.5-3.1-22.5-6.8
					c-6.1-2.8-12.2-2.8-18.5-5c-5.3-1.8-6.8-4.1-11.2-7c-6.5-4.2-14.5-5.9-20.9-9.5c-6.1-3.5-11.7-7.5-18.1-10.7
					c-4.2-2.1-8.5-4.9-12.6-6.8c-5.7-2.6-11.6-3.1-17.3-5.6c-11.8-5.2-20.9-15.1-32.5-20.7c-8.6-4.1-16-9.5-24.8-12.7
					c-6.5-2.3-13.2-4.3-19.9-6.7c-4-1.4-8.8-3.8-13-4.6c-2.9-0.6-6.3,0.3-9-0.4c-5.7-1.4-13.5-9.4-17.9-12.9c-2.9-2.7-6-5.3-9.1-7.9
					c-2.7-0.4-5.5-0.8-8.3-1c-3.5-1-6.3-3.1-9.5-4.6c-4-1.9-8.4-2.2-12.3-3.7c-4.3-1.6-5.1-3.3-8.8-6.2c-6.7-5.1-10.6-4.3-18-5.7
					c-6.4-1.2-8.1-6-15-6.3c-4.6-0.2-9.1,0.1-13.5,0.6c4.8,3.2,9.2,7.6,12.8,12.1c5.7,7.1,1.6,13,3.6,20.6
					c1.7,6.4,10,11.2,15.1,14.8c13.2,9.4,26,18.6,37.6,30c5.6,5.6,10.7,11,16.6,16.5c4.4,4.1,13.2,10.1,14.6,15.9
					c-4.6,1.8-7.2-1.9-11.7-2.6c-3.5-0.6-7,0.7-10.5-0.1c-6.3-1.4-13.3-6-18.8-8.4c0.3,9.3-13.3,4.7-24-1.2c4.5,4.6,8.8,9.9,13.5,13
					c8.1,5.3,16.7,6.8,25.1,11.1c2.4,1.2,3,3,5.5,3.8c3.7,1.2,5.6,0.2,9.2,2.7c3.4,2.4,6.3,6.5,9.7,9.2c4,3.2,9,5.7,12.9,8.9
					c5.9,5.1,13.7,10.8,19.2,16.5c3.1,3.2,4.4,7.5,7.7,10.5c2.4,2.2,6.2,3.3,9.1,4.6c4.4,2,8.8,3.9,13.2,6
					c-7.4-7.7-14-16.8-19.4-22.9c-2.2-2.5-4.1-6-6.2-9.3c-3.2-2.5-6.2-5.2-8.9-8.4c3.8,1.1,6.5,4.6,8.9,8.4
					c11.5,8.9,25.4,13.9,38.2,20.9c7.4,4.1,14.4,9.6,22.6,12.7c7.1,2.7,6.9,2.9,11,8.3c3.1,4.1,4.5,6.5,9.7,8.4
					c6.8,2.5,18,2.5,25.2,1.1c-11-13.4-32-19.5-45.8-29.6c-12-8.8-17.8-25-27.3-36.8c-7.3-9.1-12.7-16.9-22.1-23.7
					c-9.1-6.7-35.1-19.2-33.7-32.7c7.5,0.3,20,10.1,24.8,13.3c11.4,7.6,21.2,16.4,32,24.7c6.4,5,13.6,10.2,21.5,12.6
					c5.9,1.8,11.9,2.4,17.7,4.8c10.2,4.3,22.3,12,29.4,20.8c6.5,8.1,8.8,14,18.2,19.5c6.1,3.6,12.9,5.6,18.7,9.8
					c12.9,9.6,24.7,21.4,36.1,32.7c10.7,10.5,23.4,16.8,36.3,24.1c9.7,5.5,17.3,13.4,26.8,18.8c5.4,3.1,11.5,5.6,17.2,8.3
					c-8.6-3-15.3-5.8-24.5-6.4c-6,0.3-11.9-0.3-17.7-1.8c-4.5-0.6-8.7-1.9-12.7-3.9c-5.7-0.2-10,4.4-15.8,5.5
					c-4.7,0.5-9.4,0.5-14,0.1c-3-0.3-5.4,0.5-7.3,2.6c-6.7,1-15.1-1.2-21.6-3.1c-6-1.8-14.1-9.8-20.2-7.3c-0.3,1.2-0.5,2.4-0.8,3.6
					c-3.6,3-7.6,3-12.1,0.1c-9.2-2.3-17.5-3.7-26.6-5.3c15.6,5,28.4,14.9,44.7,18.8c10.5,2.5,18.4,4.7,27.4,11
					c12.9,9.1,29.7,13.6,44.5,18.6c8.4,2.9,14.9,6.8,22.2,12c5.5,4,11.6,10.1,18.4,11.5c10.3,2.2,18.6,2.1,28.5,6.6
					c8.3,3.8,26.4,22.7,36.4,21c-8.1-7.6-21.1-12.4-30-18.7c-8.3-5.9-16.1-12.2-24.6-17.6c-0.5,0.3-1.1,0.6-1.8,0.7
					c-0.9-1-1.9-2.2-3-3.6c-0.7-0.4-1.4-0.8-2.2-1.2c-5.5-2.9-28.3-16.4-25.2-23.1c10.6-0.7,20.2,15.1,27.4,24.3
					c1.6,0.9,3.2,1.9,4.8,2.9c1.2-0.7,1.9-1.8,3.3-2.2c3.6-1.2,7-0.7,10.8-0.7c11.7,0,22.8,2.8,34.4,3.2c2.6,0.1,5.1,0.1,7.4,0.2
					c-8.7-4.9-16.3-11-21.8-19.2c-4.6-6.8-7.2-11.4-9.6-19.3c-3.3-10.5-2.2-11-11.5-15.5c-11.2-5.4-17.3-13.3-25.3-22.4
					c-7.1-8-15.8-13.2-24.9-18.6c-10.5-6.3-19.7-13.9-28.5-22.5c-5.6-5.5-12.6-16.2-20.7-18.6c19.1,6.3,36.1,18.4,55.9,22.6
					c1.2,1.4,2.7,2.1,4.5,2.3c3-0.6,6.1-0.8,9.1-0.5c10.8,5,9.2,23.3,20.3,29c7.6,3.8,18.1,4.4,26.2,7.2c9.9,3.4,18.2,9.3,28.1,12.4
					c11.1,3.4,22.7,6.2,33.9,9.6c14.6,4.4,32.7,6.6,46.1,13.9c-14.8,2.7-29.2-3.4-44.2,0.2c-4.3,1-8.3,3-12.6,3.3
					c15.6,1.9,32,8.5,46.2,14.2c11.8,4.8,20.5,6.2,33.1,6.4c6.3,0.1,12,1.9,18.1,3.2c13.3,2.8,26.3,2.4,39.8,3.3
					c20.4,1.4,42.7,13.2,61.7,21.3c-0.5,3.4-4.1,5.5-6,8.5c-3.8,5.9-4.6,17.4-0.6,23.9c2.8,4.6,7.1,6.5,11.5,9.5
					c10.9,7.4,20.2,16.8,31.5,23.7c9.5,5.8,19.8,10.5,29.4,16.1c13.2,7.7,25.2,18,38.2,26.2c13.1,8.3,26.4,16.4,39.4,24.9
					C1486.9,1011.2,1490.5,1008.7,1491.9,1005.7z"/>
			</g>
			<g id="XMLID_150_">
				<path id="XMLID_153_" class="st5" d="M1019.2,911.8c2.6-0.6,5.3-1.3,7.9-1.9c-6.7-1.9-13.7-2.9-20.7-4.2
					C1009.9,909.5,1013.9,912,1019.2,911.8z"/>
				<path id="XMLID_209_" class="st5" d="M907,864.8c3.9,0.1,7.7,0.3,11.4,0.5C915.1,864.5,911.4,864.3,907,864.8z"/>
				<path id="XMLID_223_" class="st5" d="M1345,995.5c-8.4-2.1-16.5-4.9-24.3-8.4c-10.6-3.4-19.7-9.4-27.2-18.2
					c-7.4-7.4-12.5-15.3-21.6-19.5c-8.7-1.7-17.4-2.9-26.2-3.6c-11.1-0.8-22.1-1.6-33.2-2.4c-16.5-0.1-32.9-0.5-49.4-1
					c-1.8-0.8-3.6-1.5-5.4-2.3c-5.6-3.6-6.5-6.4-13.9-8.6c-9.7-2.9-19.7-4-29.4-6.5c-12.1-3.2-24.2-3.1-36.4-5.7
					c-11.3-2.4-22.8-9.3-33.9-10.7c-4.2-2.4-8.5-2.3-13,0.5c-1.3,0.3-2.7,0.6-4,1c2,0.6,4,1.2,6,1.9c8.9,3.3,16.9,9.3,24.9,14.2
					c6.7,4.1,14.3,7.8,19.7,13.6c-13.6,3.7-32.7-2.8-46.5-2.9c-12.5-0.1-25,0.1-37.5,0.1c-5.2,0-10.4,0-15.6,0
					c-7.6,0-19.4,3.1-26.5,0.4c-3.9-1.5-4.4-4.8-7.4-7.5c-1.6-1.5-3.7-2.6-5.9-3.5c0.5,0.1,1,0.1,1.5,0.1c1.5,0,2.7-1.2,2.9-2.6
					c0.8-0.4,1.7-0.9,2.4-1.6c1.3,0.3,2.8,1,3.8,1.2c2.2,0.4,3.9,0.3,5.6-1.2c1.7-1.5-0.2-3.9-2.1-3.5c-3,0.6-5.2-2.2-7.8-3.1
					c-3.3-3.5-8.6-4.9-13.4-6.6c-1.2-2.9-3-5.5-6.2-6.6c-3.2-1.2-6.4-0.6-8.7,1.9c-0.4,0-0.7,0-1.1,0c-3.1,0-4.7-0.9-6.5-3.3
					c-0.8-1.1-1.5-2.2-2.7-3c-2.9-2.1-5.9-1.1-9-1.8c-3.9-0.8-5-5.2-9.5-5.6c-2.3-0.2-4.7,0.7-6.9,0.1c-1.2-0.3-2.1-1.2-3.3-1.4
					c-1.9-0.3-3.8,0.6-5.7,0.2c-2-0.4-4.4-1.4-6-2.7c-0.9-0.7-2.2,0.4-1.3,1.3c1.8,1.8,4.2,3.5,6.6,4.5c1.2,0.5,2.1,0.6,3.4,0.8
					c1.4,0.2,1.9,0.1,3.3,0.9c0.5,0.3,0.9,0.7,1.5,1c1.5,0.6,3.2,0.6,4.8,0.6c2.9,0,4.5,1.3,6.5,3.2c2.7,2.6,4.7,3.2,8.3,3.3
					c3.1,0.1,4.3,1.4,5.5,3.1c-1.7-0.2-3,1.3-3.1,2.8c-2.7-2.5-7.1-3.8-9.7-0.5c-0.1,0.2-0.2,0.3-0.3,0.5c-0.2-0.1-0.4-0.1-0.6-0.2
					c-2.5-1.1-4.6-2-7.3-1.7c-1.4,0.2-1.4,2.2,0,2.2c2.7-0.1,4.8,1.4,7.1,2.7c0.1,1.5,1,3,2.4,4.5c-1.1-0.3-2.3-0.5-3.4-0.8
					c-9.1-2.4-17.7-8.1-26.2-12.3c-6.8-3.3-13.1-7.9-20.2-10.7c-4.1-1.7-8.5-1.5-12.5-2.9c-5.7-2-11.2-5.8-16.7-8.5
					c-12.6-6.3-24.5-14-37.5-19c-10.7-4.1-12.2-12.7-20.4-19.4c-5.7-4.6-20.5-9.1-16.4-18.8c3.2-7.8,8.3-5.4,13.2-1.6
					c6.1,4.8,17.8,12.1,25.5,13.5c4.9,0.9,10.3-1.1,15,0c3.9,0.9,26.1,16.8,23.6,3.7c-11-1.8-15.7-8.9-24.6-15
					c-9-6.2-17.3-10.8-24.6-19.2c-3.8-4.4-10.9-9.4-13.2-15.1c-1.6-4.2-0.2-7.4-2.9-11.3c-5.9-8.2-22.6-10.6-31-15.5
					c-15.4-9-29.9-18.4-43.8-29.6c-10.4-8.4-22-11-33-17.7c-7.5-4.6-15.5-19.4-24.9-18.6c-9.5,0.8-3.1,9.8-2.2,15
					c9.8-0.1,23,25.3,6.5,21.3c3.1,2.3,1,4.7,1.8,7.7c1.3,5,2.3,5.5,6.1,9.3c3.5,3.5,6.8,7.9,9.7,11.6c1.5,1.8,2.8,3.1,3.8,4.5
					c-0.3,0.3-0.5,0.7-0.7,1.1c-0.1,0.3-0.2,0.5-0.3,0.8c-0.3,0.9,0.1,1.9,0.7,2.6c0,0,0,0,0,0c0,0,0,0.1,0,0.1c-0.2,0-0.3,0-0.5,0
					c0-0.1,0-0.1,0-0.2c-0.1-1.3-1-2.2-2-2.8c-1.3-0.8-2.3-1.1-3.4-2c-1.2-1-2-1.9-3.4-2.6c-2.3-1.1-5.8-2.1-8.4-3.8
					c-1.3-5.6-8.1-14.8-14.5-14.6c-1.8-1.3-3.6-2.4-5.8-2.7c-1.4-0.2-1.5,1.8-0.7,2.4c1.4,1,2.8,2.3,4,3.7c0.2,0.6,0.5,1.2,1.1,1.6
					c0,0,0,0,0.1,0c0.2,0.3,0.3,0.5,0.4,0.8c0.6,1.2,1.1,2.3,2.1,3.3c0.8,0.8,1.8,1.3,2.3,2.4c0.1,0.3,0.3,0.5,0.6,0.7
					c-0.3,0.8-0.2,1.8,0.5,2.5c2.2,2.4,4.2,5.1,7.1,6.8c1,0.6,2-0.7,1.2-1.6c-0.5-0.6-0.9-1.2-1.3-1.8c1.4,0.3,2.6-0.7,2.9-2
					c0.9,0.7,1.8,1.4,2.6,1.9c2.8,1.8,5.9,1.8,7.8,4.9c0.7,1.2,1.1,2,1.9,2.9c-0.8,2.4-2.2,4.6,0.2,6.8c1.3,1.2,3.3,1.7,4.7,2.7
					c2.4,1.7,4.3,3.8,6.8,5.3c2.6,1.4,5.2-1.9,3.1-4.1c-1.4-1.5-2.4-3.2-3.7-4.7c-0.4-0.4-0.8-0.8-1.3-1.2c0.5-0.3,0.8-0.8,0.9-1.4
					c0.1-0.6,0.1-1.1,0.2-1.6c5.1,1.5,9.9,6.1,13.4,9.5c5.7,5.5,22.9,20.8,17.9,29.5c-4.9,0.4-9.5-2.8-14.5-3.2
					c-7.3-0.6-16.7-1.2-23.9,0.7c3.8,7.4,21.8,9.1,22.9,16.9c-18.5,4.3-32.2-4.5-47-14.3c-4.7-3.1-6.5-7.2-10.7-10.4
					c-5.7-4.3-14.4-5.1-20.7-9c-9.5-5.8-19.3-11.4-26.1-19.8c-5.3-6.5-24.4-13.6-19.9-23c4.5,3.6,9.8,6.5,15,8.8
					c3.8,1.7,7.9,1.9,11.4,4.1c2.3,1.4,3.7,3.8,6.1,5.1c4.4,2.4,10.6,4.8,15.1,6.7c3.5,1.5,10.8,4.2,14.8,3.9
					c-1.1-6.1-12.7-5.9-17.1-9.2c-5.3-4-9.7-7-15.7-10.7c-5.1-3.1-10.7-6-15-9.6c-5.8-4.8-9.9-12.5-14.9-18.1
					c-3.5-3.9-10.5-5.6-15.8-8.2c-5.9-2.9-10.4-2.8-16.6-4.4c-2.7-0.7-6.5-3.9-9.7-4.6c-4.1-1-7.9-0.3-12-1.3
					c-7.4-1.9-12.9-2.3-21-2.3c-15.3,0-31.5,1.3-45.8-2.3c-6.3-1.6-13.6-0.8-20.2-0.7c-8.2,0.1-10.8-3.7-18-6.8
					c-3.7-1.6-8.1-3.5-12-4.5c-4.1-1-8.2,0.4-12.2-0.5c-5.2-1.1-8.2-6.3-12.4-8.6c-3.3-1.7-9-0.6-12.7-1.2c-5.5-1-10.6-3.5-16.1-4.7
					c-10.6-2.5-19.8-3.6-30.7-3.7c-4.9,25.1-9.5,28.2-12,34.2c-8,19.4-6.6,40.5-3.2,60.6c3.5,20.3,8.7,39,20,56.3
					c12.6,19.3,29.9,32.1,49.5,44c21.6,13.1,43.8,23.9,67.8,31.8c23.3,7.7,46,12.7,68,23.7c38.7,19.4,71.3,48.5,109.3,69.1
					c33.6,18.3,71.1,33.2,108.2,42.8c44.6,11.6,90.9,14.2,136.7,15.7c55.1,1.8,110.5,1.7,165.6,2.3c95.6,1,194.4,4.9,287.4-20.4
					c24-6.5,47.4-15.4,71.5-21.5c4.9-1.2,11.6-1.3,15.5-4.8C1361.2,1006.4,1353.7,999.7,1345,995.5z M924.8,918.5
					c-2-1.3-4.2-2.2-6.2-3.3c-1.6-0.8-3.1-1.8-4.5-2.7c0.8-0.1,1.6-0.2,2.4-0.5c0.9-0.3,1.7-0.6,2.4-1.2c0,0,0.1-0.1,0.1-0.1
					c2.5,0.6,4.9,1.8,7.3,3c0.2,0.8,0.4,1.5,0.6,2.3c0.3,1,0.8,2,1.4,2.9C927.2,918.8,926,918.7,924.8,918.5z M934.4,916.8
					c1.2,0.4,2.3,0.8,3.4,1.3C936.5,918.1,935.3,917.6,934.4,916.8z"/>
				<path id="XMLID_212_" class="st5" d="M978,872.1c-9.8-1-7.8,2-16.9-1.2c-6.1-2.2-11.7-2.6-18.1-3.4c-8.4-1-16.3-1.7-24.5-2.2
					c11.7,2.7,18.9,12.2,29.8,19.7c5.7,4,12.3,3.6,18.6,5.8c6.8,2.3,12.6,6.7,19.3,9.5c6.5,2.7,13.3,4.2,20.2,5.4
					C996.6,894.9,991.8,873.4,978,872.1z"/>
			</g>
			<path id="XMLID_149_" class="st5" d="M615,725c-2.5-1.9-4.3-5.6-6.2-8c-1.1-1.4-2.5-3-3.8-4c-3.3-2.7-5.5-4.9-7.2-9
				c-1-2.4-2-3.9-4.8-4c-2.7-0.1-5.1,0.3-7.8-0.7c-1.9-0.7-3.8-1.2-5.4-2c-2.3-1.1-3.1-2.4-4.9-3.9c1.1,3.1,5.4,5.4,7.6,7.7
				c1.5,1.6,3.5,3,5.3,4.2c1.4,0.9,3.1,1.3,4.5,2.5c1.8,1.5,3.1,2.7,5.3,3.9c2.3,1.3,3.2,3.3,5.3,4.7c1.5,1,2.7,1.8,4.2,3
				C612.5,723.3,617.9,726.3,615,725z"/>
			<path id="XMLID_152_" class="st5" d="M616,731.3c-0.3-0.6-1.1-1.1-1.7-1.4c-0.5-0.3-1.1-0.6-1.7-0.9c-1.3-0.7-2.6,0.9-1.5,2
				c0.5,0.5,0.9,1.1,1.5,1.5c0.7,0.6,1.7,1.2,2.6,0.8C616,732.9,616.3,732.1,616,731.3z"/>
			<path id="XMLID_154_" class="st5" d="M670,792.9c-1.4,0-1.4,2.1,0,2.1C671.4,795.1,671.4,792.9,670,792.9z"/>
			<path id="XMLID_213_" class="st5" d="M833.6,861.1c-0.2-0.6-0.8-0.8-1.3-1c-1.1-0.5-2.4-0.3-3.6,0c-1.2,0.4-0.7,2.2,0.5,1.9
				c0.9-0.2,1.7-0.1,2.6,0.2c0.2,0.4,0.3,0.8,0.5,1.2c0.4,0.6,1.2,0.3,1.3-0.3C833.7,862.4,833.8,861.7,833.6,861.1z"/>
			<path id="XMLID_211_" class="st5" d="M988.6,933.5c-0.4-0.4-1-0.8-1.4-1.2c0,0-0.4-0.6-0.4-0.6c-0.2-0.2-0.6-0.5-0.8-0.6
				c-1.2-0.9-2.4-1.3-3.9-1.4c-1.7-0.1-1.9,2.4-0.4,2.8c1.1,0.3,2.1,1,3.1,1.6c0.5,0.3,1.1,0.3,1.6,0.5c0.6,0.2,1.1,0.3,1.7,0.3
				C988.7,934.9,989.2,933.9,988.6,933.5z"/>
			<path id="XMLID_214_" class="st5" d="M988.8,917.9c-3.1-1.8-4-5.9-7.4-7.5c-2.7-1.2-5,0.1-7.7-0.3c-1.6-0.2-2.4-1.1-4-0.1
				c-0.7,0.4-1.1,1.3-0.9,2.2c0.1,0.4,0.2,0.8,0.3,1.3c0.2,0.6,1,1,1.5,0.6c-0.4-0.6-0.4-0.6,0.1,0c0.2,0.4,0.5,0.6,0.9,0.9
				c0.9,0.6,2.1,0.8,3.2,1c1.2,0.2,2.7-0.1,3.8,0.4c0.7,0.4,1.3,1.3,1.8,1.9c2.1,2.3,5.9,5.1,8.6,1.9
				C989.6,919.4,989.6,918.3,988.8,917.9z"/>
			<path id="XMLID_215_" class="st5" d="M1006.1,926.4c-1.3-0.5-2.5-0.8-3.6-1.6c-1.1-0.7-2.1-1.6-3.2-2.3c-1.2-0.8-2.6,1-1.5,2
				c2.3,2,4.7,4.9,8,5.2C1007.6,929.9,1007.8,927,1006.1,926.4z"/>
			<path id="XMLID_216_" class="st5" d="M998.3,915.9c-0.7,0-1.3,0-1.9,0.2c-0.3,0-0.6,0.1-0.8,0.1c-1.8,0.2-1.8,2.5,0,2.8
				c0.3,0,0.6,0.1,0.8,0.1c0.6,0.2,1.3,0.3,1.9,0.2C1000.5,919.2,1000.5,916,998.3,915.9z"/>
			<path id="XMLID_218_" class="st5" d="M1006.6,915.9c-0.4-1.1-0.9-2.2-1.3-3.2c-0.4-0.8-1.7-0.1-1.3,0.7c0.5,1,1.1,2,1.7,2.9
				C1006,916.8,1006.7,916.5,1006.6,915.9z"/>
			<path id="XMLID_219_" class="st5" d="M1028.3,928.4c-1.3,0.2-1,2.5,0.3,2.4c3.1-0.2,5.8,2.1,8.8,2.7c0.5,0.1,1.2-0.3,1.2-0.9
				C1038.1,928.8,1031.1,927.9,1028.3,928.4z"/>
			<path id="XMLID_220_" class="st5" d="M1079.5,915.7c-0.6-3.9-4.6-5.2-7.8-6.7c-1.7-0.9-3.1-2.2-4.8-3.1c-2.3-1.3-5-0.9-7.4-2
				c-2.3-1.1-4.3,2.2-2,3.4c1.7,0.9,3.5,1.2,5.2,1.9c2,0.9,3.5,2.6,5.3,3.8c2.8,1.7,6.4,3.7,9.6,4.6
				C1078.9,917.9,1079.7,916.8,1079.5,915.7z"/>
		</g>
		<g id="XMLID_3_">
			<g id="XMLID_53_">
				<g id="XMLID_47_">
					<g id="XMLID_65_">
						<polygon id="XMLID_101_" class="st6" points="837,514.5 834,513.6 839.1,496.4 881.6,461.2 878.8,449.1 849.3,433.3 
							849.1,433.2 834.5,420.6 836.5,418.3 851,430.7 881.5,447.1 885.1,462.4 841.8,498.2 						"/>
					</g>
					<g id="XMLID_62_">
						<polygon id="XMLID_99_" class="st6" points="760.1,489.7 758.8,486.9 792.3,470.9 854.4,443.3 851.9,427.1 830.6,416.1 
							832,413.3 854.8,425.1 857.9,445.2 793.6,473.7 						"/>
					</g>
				</g>
				<path id="XMLID_68_" class="st6" d="M635.1,619.5l52.7-48.8l3.7,7.7c0,0-20.5,30.3-23.5,32.3S635.1,619.5,635.1,619.5z"/>
				<path id="XMLID_73_" class="st6" d="M524.6,562.2l-14.1-11.4h-10.3l-9.8-7l-10,4v10c0,0-7,7.9-7,10.4s0,11.1,0,11.1l23.5,10
					l3.2,12l-9.8,7l-13.5,7l-1,8.5l11.2,2.8l6.7-7.3v-5.5l9.7-3l8.1-10.5l3.4-17L524.6,562.2z"/>
				<path id="XMLID_71_" class="st6" d="M497,451.8c-61.6,0-111.5,52.1-111.5,116.4c0,64.3,49.9,116.4,111.5,116.4
					s111.5-52.1,111.5-116.4C608.5,503.9,558.6,451.8,497,451.8z M497,668.1c-52.8,0-95.6-44.7-95.6-99.9
					c0-55.2,42.8-99.9,95.6-99.9c52.8,0,95.6,44.7,95.6,99.9C592.6,623.4,549.8,668.1,497,668.1z"/>
				<path id="XMLID_69_" class="st6" d="M635.1,547.8l12.2-4l4.2-8.8h7.5l6.5,6.4l11.7,6.4h28.3l2.8,10c0,0-11.8,14-13.3,15.5
					s-24.9,6-24.9,6l-18.6,9.5h-16.5V547.8z"/>
				<g id="XMLID_42_">
					<polygon id="XMLID_44_" class="st7" points="655.3,553.3 663.1,539.3 651.5,561.9 658.5,568.2 670.1,547.8 663.1,564.3 
						677.1,561.9 696.5,561.9 705.5,547.8 677.1,547.8 665.5,541.4 659,535 651.5,535 647.3,543.8 641.3,545.7 647.3,553.3 					"/>
					<path id="XMLID_102_" class="st6" d="M696.5,561.9h-19.3l-14.1,2.4l7-16.5l-11.6,20.4l-7-6.3l11.5-22.6l-7.8,14h-8l-5.9-7.6
						l-6.3,2.1v41h16.5l18.6-9.5c0,0,23.4-4.5,24.9-6s13.3-15.5,13.3-15.5l-2.8-10L696.5,561.9z"/>
				</g>
				<polygon id="XMLID_39_" class="st7" points="789.8,403.3 795.1,420.8 789.8,422.4 791.1,426.1 812.1,420.8 810.1,406.4 				"/>
				<path id="XMLID_40_" class="st6" d="M824.8,401.6c-0.3-0.2,15.7,17.2,15.7,17.2v5.3l-2.3,2l-5.5-3.7l-2.8-3.3l-11.3-5.3
					L824.8,401.6z"/>
				<g id="XMLID_55_">
					<polygon id="XMLID_56_" class="st7" points="541.3,449.8 596.5,465.8 606.5,457.8 613.2,465.8 635.1,547.8 651.5,547.8 
						655.3,528.8 655.3,465.8 651.5,449.8 647.3,420.8 625,405.8 571.5,388.6 525.4,401.6 518.5,426.1 					"/>
					<g id="XMLID_49_">
						<polygon id="XMLID_57_" class="st6" points="623.5,408.8 609.5,405.8 582.5,420.8 578.5,405.8 586.9,401.6 572.5,403.3 
							561.1,391.5 525.4,401.6 518.5,426.1 541.3,449.8 596.5,465.8 604,430.8 610.5,417.3 						"/>
					</g>
					<polygon id="XMLID_94_" class="st6" points="606.5,457.8 613.2,465.8 635.1,547.8 651.5,547.8 655.3,528.8 655.3,465.8 
						651.6,450.2 623,457.8 					"/>
					<g id="XMLID_58_">
						<path id="XMLID_59_" class="st6" d="M635.1,449.8l-4.9-5.5l10.8-8.5l-16,8.5v-8.5l13.3-6.3l-17.3-0.7l4-6.3
							c0,0,2.3-4.2,5.2-9.2L604,430.8l-7.4,35l9.9-8H623l27.1-7.1l1.5-0.9H635.1z"/>
						<polygon id="XMLID_98_" class="st7" points="651.5,449.8 650.1,450.6 651.6,450.2 						"/>
					</g>
				</g>
				<polygon id="XMLID_48_" class="st8" points="439,382.8 434.5,398.3 431,415.4 435,430.8 501,486.8 514,499.8 522.5,499.8 
					520,510.8 506,535 507.5,557.8 511.5,594.3 512,622.3 522.5,630.8 541.5,616.8 541.5,575.8 557,523.8 569.5,482.8 565,465.8 
					545,441.3 531.5,430.8 537.8,422.8 529.5,403.3 455,382.3 				"/>
				<g id="XMLID_29_">
					<polygon id="XMLID_26_" class="st7" points="632,358.3 677.6,382.8 715,395.3 744,403.3 793,403.3 799,387.3 761,371.3 
						663.1,354.8 					"/>
					<polygon id="XMLID_84_" class="st6" points="695.4,360.2 663.1,354.8 632,358.3 677.6,382.8 687.5,366.3 					"/>
					<g id="XMLID_27_">
						<path id="XMLID_85_" class="st6" d="M778.5,401.6c-1,1.2-33.7-3.3-33.7-3.3l-22-9.7l9,9.7l-16.3-5.2l-33.1-18.4l-4.9,8.1
							l37.4,12.5l29,8h40.6C781.1,402,778.7,401.3,778.5,401.6z"/>
					</g>
				</g>
				<polygon id="XMLID_22_" class="st9" points="433.5,382.3 451.5,355.3 480,332.9 543.5,275.8 578.5,264 604.8,259.8 612.1,267.8 
					629.5,291.6 635.1,306 654.5,318.1 673.5,329.3 702.5,336.3 726.5,345.8 755.5,359.8 770.5,362.8 793,367.8 771,382.3 
					689.3,380.3 657.3,368.8 641,364.3 622,362.9 609.5,382.3 594,389.8 571,395.8 536.5,411.3 507,406.3 475.5,390.3 434.5,398.3 
									"/>
				<g id="XMLID_25_">
					<path id="XMLID_81_" class="st10" d="M696.1,376.5c-1,0.8-22.7-9.4-22.7-9.4l15.8,1.7l16.8-4h-22.7l-26.1-11.7l3.5,9L641,351.8
						v12.5l16.3,4.5l32,11.5l81.7,2l1.3-0.8l-23.1-4.9C749.1,376.6,697.1,375.8,696.1,376.5z"/>
				</g>
				<polygon id="XMLID_35_" class="st10" points="647.3,335.5 651,338.3 672.2,343.8 689.3,343.8 657.3,335.5 650.5,330.3 				"/>
				<g id="XMLID_74_">
					<polygon id="XMLID_7_" class="st11" points="718.5,275.8 713,283.8 680,279.8 680,251.8 701.5,255.8 					"/>
					<polygon id="XMLID_14_" class="st9" points="675.8,251.8 695.5,268.8 699.2,278.4 695.5,287.1 695.5,296.4 691.8,297.8 
						687.5,297.8 687.5,302.4 683.5,305.1 681.1,308.4 681.1,311.1 678.5,313.4 675.8,321.8 666.8,321.8 658.8,318.1 639.5,318.1 
						615.5,279.1 623.8,248.8 666.8,245.8 					"/>
					<polygon id="XMLID_8_" class="st11" points="665.3,248.8 660.8,271.1 660.8,279.4 655.5,273.4 651.1,258.1 643.4,251.8 
						636.8,258.8 639.5,274.4 643.4,283.8 630.8,280.8 615.5,283.8 604.8,267.8 604.8,259.8 616.5,257.3 627.8,248.8 658.5,244.2 
											"/>
					<polygon id="XMLID_21_" class="st12" points="660.8,279.4 664,294 668.2,298.5 677.1,291.6 687.5,297.8 687.5,302.4 
						683.5,305.1 681.1,308.4 681.1,311.1 678.5,313.4 675.8,321.8 666.8,321.8 658.8,318.1 646.1,289.3 655.5,273.4 					"/>
					<polygon id="XMLID_6_" class="st7" points="609.5,251.8 609.5,243.8 609.5,229.8 628.5,215.8 671.5,215.8 699.5,233.8 
						705.5,251.8 718.5,266.8 718.5,275.8 702.5,261.3 664,256.3 645.5,249.3 616.5,257.3 					"/>
					<polygon id="XMLID_5_" class="st11" points="612.1,239.4 632.1,227.1 645.1,230.1 636.8,233.3 626.5,235.1 655.5,250.4 
						699.2,258.1 702.5,261.3 664,256.3 645.5,249.3 616.5,257.3 637.8,245.8 					"/>
					<path id="XMLID_9_" class="st11" d="M629.5,222.4c1-0.3,27.8,3,27.8,3l-12.5-7L629.5,222.4z"/>
					<polygon id="XMLID_10_" class="st11" points="646.1,236.1 680,245.8 661.5,233.1 					"/>
					<polygon id="XMLID_11_" class="st11" points="660.8,221.9 669.8,230.8 665.3,224.1 					"/>
					<polygon id="XMLID_12_" class="st11" points="666.8,221.9 695.5,248.8 687.5,235.4 					"/>
					<polygon id="XMLID_13_" class="st11" points="691.8,233.1 699.2,245.8 695.5,235.4 					"/>
					<polygon id="XMLID_15_" class="st11" points="647.3,254.9 675.8,261.3 682.5,261.3 693.1,270.1 695.5,275.8 699.2,278.4 
						702.5,280.8 695.5,287.1 695.5,281.6 689.5,285.4 673.1,273.8 669.8,267.8 					"/>
					<polygon id="XMLID_17_" class="st13" points="681.1,264 691.8,272.8 693.5,277.4 688.7,282.3 677.1,273.9 					"/>
					<polygon id="XMLID_18_" class="st10" points="687.5,302.4 683.5,298.5 673.5,298.5 673.5,305.5 678.5,313.4 681.1,311.1 
						681.1,308.4 683.5,305.1 					"/>
					<polygon id="XMLID_16_" class="st14" points="683.5,305.1 681.1,300.3 673.5,298.5 681.1,308.4 					"/>
					<polygon id="XMLID_23_" class="st10" points="685.3,292.9 685.3,290.1 687.5,288.1 691.1,288.8 690.3,292.5 691.8,297.8 
						687.5,297.8 					"/>
					<polygon id="XMLID_19_" class="st15" points="691.1,296.4 690.3,292.5 687.5,291.6 688.1,293 					"/>
					<polygon id="XMLID_20_" class="st9" points="677.6,316.3 671.7,310 666.8,321.8 675.8,321.8 					"/>
					<polygon id="XMLID_76_" class="st10" points="641,261.3 644.5,256.3 650,262.5 647.3,264.8 648.7,269.3 653,271 650.5,275.8 
						646.1,273.2 643.4,271 647.3,271 645,264 646.1,261.3 644.7,259.8 643.4,264 642.2,267.8 					"/>
				</g>
				<polygon id="XMLID_79_" class="st8" points="651,338.3 673.5,329.3 654.5,318.1 635.1,306 629.5,291.6 612.1,267.8 604.8,259.8 
					578.5,264 543.5,275.8 480,332.9 451.5,355.3 433.5,382.3 434.5,398.3 475.5,390.3 507,406.3 536.5,411.3 571,395.8 594,389.8 
					609.5,382.3 622,362.9 641,364.3 641,351.8 				"/>
				<g id="XMLID_77_">
					<polygon id="XMLID_82_" class="st7" points="669.3,330.9 657.3,326.8 619.5,332.9 657.3,321.8 632,308.4 596.5,300.8 
						624,303.5 618.5,291.6 599,271 581.5,271 596.5,264 560.5,273.2 537.8,283.8 510.5,312.6 502,327.8 506.5,312.6 484,332.9 
						451.5,355.3 433.5,382.3 434.5,398.3 448.5,390.3 511.5,382.8 489,388.3 503,397.8 530,400.3 531,376.8 542,367.8 520,367.8 
						554,363.3 566.5,356.3 555.5,349.3 520,341.8 561.5,330.3 594.5,330.3 620,339.8 641,351.8 651,338.3 					"/>
					<polygon id="XMLID_83_" class="st6" points="594.5,330.3 561.5,330.3 520,341.8 555.5,349.3 566.5,356.3 554,363.3 520,367.8 
						542,367.8 531,376.8 530,400.3 503,397.8 489,388.3 511.5,382.8 448.5,390.3 434.5,398.3 475.5,390.3 507,406.3 536.5,411.3 
						571,395.8 574.3,394.9 593,370.3 596,358.8 581,343.8 594,349.3 622,362.9 641,364.3 641,351.8 620,339.8 					"/>
				</g>
				<path id="XMLID_28_" class="st8" d="M528,313.4c0,0,28.5-25,30-26.3c1.5-1.3,39-11.3,39-11.3l21.5,15.9l5.5,11.8l-10.8-11.8
					l-17.8-9.3l-32.5,5.8L528,313.4z"/>
				<polygon id="XMLID_30_" class="st8" points="506.5,335.5 540.9,308.4 533.5,321.8 573,297.8 596.5,296.4 551.5,313.4 528,325.3 
					534.2,316 				"/>
				<polygon id="XMLID_31_" class="st8" points="549.9,321.8 591.2,308.4 606.2,308.4 595.9,306 579.5,308.4 599.9,303.5 625.5,310 
					599.9,312.6 584.2,316 				"/>
				<polygon id="XMLID_32_" class="st8" points="452.5,373.8 481,364.8 514,361.3 483.2,361.3 458.5,367.5 439,382.8 				"/>
				<polygon id="XMLID_37_" class="st16" points="764.8,388.1 767.1,371.4 775.1,369.1 770,361.1 773.1,354.8 775.1,359.4 
					786.5,363.1 803.5,362.8 816.5,371.4 821.5,384.4 825.8,391.4 827.5,399.8 829.8,405.8 824.5,420.8 820.1,420.8 810.8,422.4 
					807.1,417.3 809.5,411.3 797.3,411.3 789.1,411.3 789.8,403.3 782.1,398.3 771.8,388.6 				"/>
				<g id="XMLID_60_">
					<polygon id="XMLID_100_" class="st6" points="822.5,413.4 814.1,411.3 812.1,405.4 817.8,399.8 817.8,388.6 816.5,395.8 
						807.5,401.8 801.5,400.1 797.3,396.1 805.8,388.6 807.5,382.3 799,376.5 786.5,376.5 782.5,382.3 771,382.3 766.1,378.7 
						764.8,388.1 771.8,388.6 782.1,398.3 789.8,403.3 789.1,411.3 797.3,411.3 809.5,411.3 807.1,417.3 810.8,422.4 820.1,420.8 
						824.5,420.8 826.5,403.3 					"/>
				</g>
				<polygon id="XMLID_45_" class="st8" points="621,482.8 609.5,431.3 621,428.8 630.1,420.8 647.3,423.3 641,415.4 576,411.3 
					557,405.8 563,420.8 578,426.3 596.5,429.3 613.2,482.8 				"/>
				<g id="XMLID_95_">
					<polygon id="XMLID_96_" class="st17" points="630.1,420.8 629.3,421.5 647.3,423.3 					"/>
					<polygon id="XMLID_97_" class="st7" points="582.5,420.8 557,405.8 563,420.8 578,426.3 596.5,429.3 613.2,482.8 621,482.8 
						609.5,431.3 621,428.8 629.3,421.5 608,419.4 					"/>
				</g>
				<path id="XMLID_105_" class="st7" d="M799,468.8l29.2-10.2l-3.3-3.3l-1.7,0.5l-10.9-36.3l-21,6.7l-164.7,58l-4.3-8l-11.3,3.3
					c0,0,18.7,78.3,18.7,80s-9.7,39.7-9.7,39.7l-27.7,8.7l-98.7-24l-6.3,1.7v6.3l106.7,28.7l20.7-3.7l6.7,16.7l31.3,4.7l31.7-17
					l114.8-165l2,7l-2,1.7V468.8z M668,514l-27,9.8l-5.9-19.5L668,514z M663.1,608.3l-22.1-10v-62l61.5-24l13-29l44-21.5
					L663.1,608.3z"/>
				<polygon id="XMLID_43_" class="st7" points="625,523.8 469.5,577.3 469.5,583.3 487.1,591.8 505.5,591.8 507.9,587.3 503,575.3 
					632,535 				"/>
				<g id="XMLID_50_">
					<polygon id="XMLID_90_" class="st7" points="496.5,466.3 502.5,455.3 531.5,455.3 514,450.3 496.5,451.8 482,455.3 479,444.3 
						490.5,433.3 494,420.8 507.5,414.5 487.1,414.5 459.5,428.3 451.5,422.8 469.5,414.5 449,419.4 439,411.3 435.7,394 
						434.5,398.3 431,415.4 435,430.8 501,486.8 514,499.8 541,477.3 514,482.8 					"/>
				</g>
				<g id="XMLID_51_">
					<polygon id="XMLID_87_" class="st18" points="537.8,497.3 554.2,488.3 528.5,497.3 532,490.8 540.5,488.3 547.2,478.8 
						545.3,475.1 541,477.3 514,499.8 522.5,499.8 520.7,507.8 541.5,504.3 547.2,497.3 					"/>
					<polygon id="XMLID_89_" class="st16" points="565,465.8 557,469.3 545.3,475.1 547.2,478.8 540.5,488.3 532,490.8 528.5,497.3 
						554.2,488.3 537.8,497.3 547.2,497.3 541.5,504.3 554.2,507.8 559.9,514 569.5,482.8 					"/>
				</g>
				<g id="XMLID_46_">
					<path id="XMLID_52_" class="st9" d="M514,588.6c0,0.1,0,0.2,0,0.2C514,588.8,514,588.7,514,588.6z"/>
					<path id="XMLID_88_" class="st9" d="M554.2,507.8l-12.7-3.5l-20.8,3.5l-0.7,3c0,0-6,36-6,38.5c0,2.4,0.1,36.8,0,39.3
						c0.3-2,4.5-23.8,4.5-23.8l10-32.5l-6.5,50l0.5,48.5l19-14v-41l15.5-52l3-9.8L554.2,507.8z"/>
					<path id="XMLID_91_" class="st10" d="M528.5,532.3l-10,32.5c0,0-4.2,21.8-4.5,23.8c0,0.1,0,0.2,0,0.2c0,0,0-0.1,0-0.2
						c0.1-2.5,0-36.9,0-39.3c0-2.5,6-38.5,6-38.5L506,535l1.5,22.8l4,36.5l0.5,28l10.5,8.5l-0.5-48.5L528.5,532.3z"/>
				</g>
				<g id="XMLID_80_">
					<polygon id="XMLID_92_" class="st18" points="536,585.3 510.2,582.8 511.5,594.3 512,622.3 522.5,630.8 541.5,616.8 
						541.5,582.2 541.3,582.3 					"/>
				</g>
				<polygon id="XMLID_67_" class="st6" points="630.9,621.8 547.5,649.3 562.5,655.3 643.2,629 				"/>
				<polygon id="XMLID_54_" class="st8" points="505.5,622.3 518.5,620.3 537.5,608.3 550.7,610.8 561.5,638.1 576,643.8 593,648.3 
					597.5,658.3 580.5,669.8 550.7,673.3 525.4,664.3 521,667.3 497.5,660.3 503,638.1 				"/>
				<polygon id="XMLID_93_" class="st19" points="589,650.3 575,655.3 562.5,655.3 566,643.8 550.7,655.3 536.3,647.8 554.2,632.8 
					525.4,650.3 518.5,646.8 547.5,622.3 528.5,635.8 522.4,633.2 525.4,621.8 537.5,608.3 518.5,620.3 505.5,622.3 503,638.1 
					497.5,660.3 521,667.3 525.4,664.3 550.7,673.3 580.5,669.8 597.5,658.3 593,648.3 				"/>
				<path id="XMLID_109_" class="st6" d="M876.2,497.3c-76.3,0-138.2,59.8-138.2,133.5c0,73.7,61.9,133.5,138.2,133.5
					s138.2-59.8,138.2-133.5C1014.5,557.1,952.6,497.3,876.2,497.3z M876.2,745.3c-65.5,0-118.6-51.3-118.6-114.5
					c0-63.2,53.1-114.5,118.6-114.5s118.6,51.3,118.6,114.5C994.8,694,941.7,745.3,876.2,745.3z"/>
				<polygon id="XMLID_24_" class="st6" points="673.5,329.3 653,338.8 642.2,354.8 641,364.3 641,351.8 651,338.3 				"/>
				<g id="XMLID_34_">
					<polygon id="XMLID_78_" class="st11" points="607,271 624,288.1 635.1,306 629.5,291.6 612.1,267.8 604.8,259.8 578.5,264 
						602.1,264 					"/>
				</g>
				<polygon id="XMLID_33_" class="st16" points="578.5,343.8 535.5,340.6 527,341.4 565.3,345.9 				"/>
				<polygon id="XMLID_38_" class="st16" points="592.6,361.3 562.8,364.3 548,365.3 564.5,366.1 				"/>
				<polygon id="XMLID_86_" class="st16" points="590.1,356.8 566.1,361.3 583.6,360.4 				"/>
				<polygon id="XMLID_36_" class="st12" points="785.2,382.3 787.7,378.3 799,378.3 801,383.5 800.5,389 793.1,392.9 788,391.3 
					785.2,386.4 				"/>
				<polygon id="XMLID_41_" class="st6" points="620,614.8 635.1,608.3 647.3,614.8 650.1,626.5 638.3,630.8 624,628.8 				"/>
				<polygon id="XMLID_72_" class="st8" points="617.1,481.4 623.5,489.7 789.8,434.1 624,492.4 635,554.8 				"/>
				
					<rect id="XMLID_63_" x="820.6" y="473.4" transform="matrix(0.9571 -0.2896 0.2896 0.9571 -108.5383 261.1682)" class="st12" width="15" height="47.7"/>
				
					<rect id="XMLID_61_" x="810" y="460.3" transform="matrix(0.9571 -0.2896 0.2896 0.9571 -100.4174 257.475)" class="st6" width="19.5" height="15.5"/>
				<path id="XMLID_64_" class="st6" d="M873.1,645L873.1,645c-5.7,1.7-11.6-1.5-13.4-7.2l-36.4-120.2l20.5-6.2l36.4,120.2
					C881.9,637.3,878.7,643.3,873.1,645z"/>
			</g>
			<g id="XMLID_111_">
				<path id="XMLID_75_" class="st9" d="M261.6,594.1c1.7,2.2,5,4.4,7.9,4.1c1.6-0.2,4-1.4,5.6-2c2.3-0.8,4.3-1.6,6.7-0.9
					c2.4,0.7,5.2,1,7.4,2.2c3.9,2,8.5,0.7,12.7,0.9c1.8,0.1,3.3,0.1,5-0.1c2.2-0.2,3.9,0.3,6,0.9c2.6,0.8,4.4,1.4,6.7-0.3
					c1-0.7,2.2-1.8,3.3-2.2c1.4-0.4,4.2,0.4,5.5,0.8c3.3,1.2,6.1,4,9.6,4.7c3.6,0.8,6.2-1.9,8.9-3.9c2.4-1.7,4.8-3.9,7.7-4.7
					c3.2-0.8,6.2,0.5,9.3,0c3.5-0.6,6.5-0.1,10,0.3c4.3,0.5,8.4-1.2,11.6-4c1.5-1.4,2.1-3.3,3.4-4.8c0.9-1,2.2-1.5,3.2-2.4
					c1.1-1,0.9-1.2-0.1-2.4c-0.7-0.9-2.3-2-3.6-1.6c-1.1,0.3-2,2.2-3.2,2.2c-1.2,0-1.8-1.6-3-1.7c-1.3-0.2-2.2,0.9-2.9,1.7
					c-1.5,1.8-1.6,0.3-3.3,0.2c-0.5,0-1.2,0.7-1.7,0.9c-0.8,0.3-1.2,0.2-1.9,0.7c-1.2,0.7-2.2,1.6-3.6,1.6c-3.1-0.2-3.1-4.2-6.2-2.8
					c-1.3,0.6-2,1.8-3.4,2.1c-2,0.4-2.6-0.6-3.8-1.9c-1.1-1.3-1.4-0.9-2.9-0.6c-1.3,0.3-2.9-0.2-3.9-1c0.7-0.7,0.9-1.6,1.7-2.1
					c0.2-0.1,1.8-0.5,2-0.6c0.7-0.2,2.3-0.6,3-0.5c1,0.1,0.9,0.6,1.6,1.2c1.9,1.7,2.1-1,4.4-0.9c1.7,0.1,2.6,2.6,4.6,3.2
					c1.6,0.5,4.1,1.2,3.8-1.1c-0.2-1.7-3.6-3-2.7-4.3c1.3-1.9,3.5-0.1,4.9-0.2c2.1-0.2,2.9-3.2,4.7-3.9c2.2-0.9,6.1-0.4,8.4-0.3
					c1.7,0.1,3.9-0.2,5,1c1.1,1.2,1.8,2.8,2.8,4.1c1.1,1.3,4.8,2.4,5-0.2c0.2-1.6-1.3-1.7,0.3-2.8c0.8-0.6,1.8-0.7,2.7-0.6
					c1.2,0.1,2.5,0.6,3.7,0.8c1.7,0.2,3.6,0.2,5.2,0.6c2.6,0.6,1.3,3.3,3.6,3.9c1.7,0.4,4.3-0.6,5.9-0.9c2-0.3,3.8-0.7,5.8-0.8
					c-0.2-0.9-1.4-2.2-1-3.2c0.4-1.1,2.9-1.7,4-2.1c1.8-0.6,3.8-0.9,5.7-0.9c1.8,0,3.1,0.7,4.8,0.8c2.4,0.2,6-2.5,8-1.3
					c1.7,1,1.7,3.6,3.8,4.4c3,1.1,5.6-3.1,8.9-2.8c3.7,0.4,6.7,4,10.7,2.1c2.2-1.1,3.7-3,6.2-3.3c1.6-0.2,3.2-0.2,4.8-0.6
					c2.4-0.6,7.7-3.1,9.6,0.1c-1,2.3-7-0.9-9.3,0.1c-1.1,0.4-2,1.4-3,2.1c-2.1,1.4-4.4,2.2-6.4,3.6c-2.1,1.5-5,4.6-7.5,3.7
					c-1.8-0.6-2.9-0.9-4.9-0.2c-2.1,0.7-3.5,2.2-5.3,3.3c-1.7,1.1-3.2,1.5-5.1,0.5c-1.5-0.8-2.2-3-3.8-3.4c-1.7-0.4-3.7,1.6-5.4,1.7
					c-2,0.1-3.9-0.7-6-0.5c-3.9,0.4-6,4.3-9.3,6.3c-3,1.9-7-0.2-10.3,0.6c-1.3,0.3-5.2,1-5.3,2.6c2.6,0.4,5.2,0.5,7.8,1.2
					c1.9,0.5,4.8,2.8,6.9,2.4c1.6-0.8,3.2-1.4,5-1.8c1.1-0.3,2.3-0.6,3.4-0.9c2.8-0.8,4.8-1.6,7.8-1.2c2.2,0.3,4.2,1.3,6.4,1.1
					c2.5-0.2,4.8-1.4,7.3-1.8c3.2-0.5,10-2.8,12.3,1.2c-1.3,0.8-3,1.4-4.5,1.7c-1.1,0.2-4.7-0.5-5.2,0.8c-0.4,0.9,1.1,4.1,1.2,4.8
					c0.1,2-0.8,3.7-2.2,5c-3.6,3.4-10,3-14.5,2.1c-2.2-0.4-1.4-1.2-2.8-3c-1.5-1.8-2.3-0.7-3.8,0.1c-1.4,0.5-2.7,1-4.1,1.6
					c-1,0.7-2,1.5-2.8,2.4c-2.6,1.8-5.8,2.8-8.9,3.2c-1.9,0.3-4.1-0.2-4.7,1.8c0.3,1.4,0.3,2.8,0,4.2c-0.2,0.8-0.4,1.6-0.6,2.4
					c-1.4,3.5-4.1,4.4-7.4,5.4c-1,0.3-2.5,1.3-3.4,0.9c-0.2-0.6-0.6-1.1-1-1.5c-0.4-0.6-1-1.1-1.7-1.5c-1.5-0.7-3.5-0.6-4.9,0.1
					c-2.2,1.1-3.9,2.7-6.3,3.7c-1.5,0.6-4.1,2.1-5.8,1.6c-1.2-0.4-1.4-0.6-1-1.8c0.8-2.7,4.8-3.4,6.9-4.4c1.9-0.9,4.5-2.2,4.3-4.7
					c-0.1-1.1-1.2-2.4-2.4-2.4c-1.4,0-2.3,1.7-3.1,2.6c-1.5,1.6-3.7,3.2-5.7,3.8c-4.1,1.3-11.2-3-13.9,1.8c-1,1.7-0.8,3.4-3.1,3.9
					c-2.3,0.5-4.6-0.6-6.9-0.7c-1.8,0-3.3,0.7-4.8,1.7c-2.2,1.5-4.5,2.6-6.7,3.9c0.5,0.9,2,1.8,1.7,3c-0.3,1.5-2.2,1.5-2.7,2.7
					c-0.3,0.8,0.4,2,0.5,2.7c0.2,1.7-0.5,3.5-1.5,4.9c-1.1,1.4-3.2,3-5.2,2.6c-1.7-0.4-2.6-2.3-3.6-3.5c-1.3-1.6-2.6-2.9-4.7-3.2
					c-1.5-0.2-3.9,0-4.6,1.7c0.7,0.6,1.6,1.1,2.5,1.5c1.3,1,1.9,2.3,2,3.8c0.7,3.2,0.2,6.1-1,9.1c2.4,2,4.9,2.1,7.4,0.6
					c4.9-3,10.4-5.2,16.3-5.6c4.8-0.3,6.7,2.6,10.5,4.8c3.1,1.8,6,1.5,9.4,1.8c2.7,0.3,6.4,1.7,7.5,4.5c1.2,3.1-2.9,3.2-5,3.6
					c-2.8,0.6-7.9,1.1-10.1,3.2c-2.4,2.3-4.1,4.9-6.9,6.8c-3.5-2-7.4-4.4-11.6-2.1c-4.2,2.4-1.6,4.8-2.1,8.3c-0.3,2.6-3.9,7,0.1,8.7
					c1.8,0,3.6,0.2,5.3,0.6c2.5,1.4,4.1,3.4,5.1,6.1c2.8,5,4.8,8.1,10.9,8.6c1.8,0,3.5,0.1,5.2,0.6c1.3,0.4,2.7,0.8,4,1.2
					c1.8,0.3,3.6-0.1,5.2-1c2.9-1.7,2.3-6.1,1.8-8.9c-2.5-0.5-4.9,0.4-7-1c0.8-4.5,3.8-8.6-0.4-12.1c-1.6-0.5-2.5-1.6-2.7-3.3
					c0.8-2.1,2-4,3.5-5.7c1.6-1.9,4.1-4.5,6.2-5.9c3.1-2,5.6-0.3,8.7-0.9c1.5-0.6,2.5-1.7,3-3.2c1.2-0.9,2.6-1.1,4-0.5
					c2.6-0.3,5-1.1,7.1-2.7c2.4-1.3,4.9-2.5,7.4-3.7c1.2-0.6,7.6-4.4,9.1-3.2c1.1,1,0.4,2.4-0.1,3.4c-1.1,2.3-1.8,3.7-4.1,5.2
					c-2.1,0.6-3.8,1.8-5,3.6c0,1.7,0.5,3.2,1.4,4.7c0.9,2.4,0.6,4.8,1.7,7c1.5,2.9,0.5,6.5,0.3,9.7c0.1,2-0.2,3.9-0.9,5.8
					c-1.4,1.5-3,2.6-4.8,3.4c-1.2,1.4-2.6,2.5-4.2,3.3c-1.5,0.3-2.9,0.1-4.2-0.4c-2.4-0.1-5.8,3.3-7.6,4.6c-3,2.1-5.1,4.4-4.7,8.3
					c1.6,0,3.2-0.4,4.6-1.3c2.1-1,4.3-1.7,6.6-1.9c1.1,0.4,2.2,0.9,3.3,1.3c1.3,1.5,2.6,2.9,4,4.3c1.9,1.3,4.7,1.7,6.9,1.9
					c2.8,0.2,2.6-1.1,3.3-3.2c1-2.7,3.5-2.6,6.1-2.4c3,0.2,7.9,1.2,9.5,4.2c1.3,2.4,0.9,4.7,0.9,7.3c-0.3,0.9-0.3,1.8,0.1,2.7
					c0.4,0.5,0.8,1.1,1.2,1.6c1.2,2.4,0,5.8-2.2,7.3c-1.4,1-2.9,1.2-4.4,0.7c-1.6-0.3-3.2-0.6-4.8-0.9c-2.6,0.9-2,4.2-1.7,6.2
					c0.4,3,1.7,4.5,4.3,5.7c2.3,1.1,6.5,2.1,9.1,1.5c3.2-0.7,2-4.6,2.8-7c0.9-2.7,2.3-2.7,4.8-2.7c3-0.1,6.5,0.3,9,2
					c1.6,0.6,2.3,1.8,2.3,3.5c-0.4,0.8-0.7,1.6-1.1,2.4c-1.1,4.2,2.7,5.1,6.2,5.1c1.4-0.1,2.8-0.2,4.2-0.2c2.3,0.5,4.6,1.3,6.8,2.2
					c5,1.9,10.4,2.2,14.7,5.5c2.9,2.2,6.7,5.1,7.9,8.7c1,3-1.3,5-3.5,6.2c-7.7,4-15.9,7.6-24.4,9.3c-6.9,0.8-13.8,1.6-20.6,2.4
					c-12.9,0.3-25.5-1.3-37.8-4.8c-13.2-2.6-26.1-6.4-38.6-11.4c-8.8-3.8-17.6-7.7-26.3-11.5c-13.8-6.2-26.6-14-38.5-23.3
					c-11.3-7-20.8-16-28.5-26.9c-4.3-6.8-8.7-13.7-13-20.5c-6.9-11.5-11.2-23.8-12.9-37c-0.2-8.9,0.8-17.2,5.2-25.1
					c1.9-3.3,3.1-6,2.9-9.8c-0.2-4,0.4-7.2,0.7-11.2c0.2-1.9-0.3-5.4,0.6-7.4C260.4,594.6,261.9,593.4,261.6,594.1z"/>
				<path id="XMLID_116_" class="st9" d="M358.2,640.9c-0.1,0-0.1,0.1-0.2,0.1c-0.6-0.2-1-0.3-1.6-0.2c-0.3,0.1-0.6,0.2-0.8,0.5
					c0,0-0.2,0.2-0.2,0.3c0,0,0,0-0.1-0.1c-0.1-0.2-0.3-0.3-0.4-0.4c-0.4-0.4-1.3,0.2-1,0.7c0.2,0.5,0.4,1.1,0.9,1.4
					c0.5,0.3,0.9,0.3,1.3,0.2c0.1,0.1,0.3,0.3,0.4,0.4c0.4,0.4,0.9,0.6,1.4,0.7c1.4,0.2,2.5-0.9,2.3-2.3
					C360.1,641.3,359.1,640.5,358.2,640.9z"/>
				<path id="XMLID_117_" class="st9" d="M353.2,634.3C353.2,634.3,353.1,634.3,353.2,634.3c-0.6-0.2-1.1-0.1-1.4,0.4
					c-0.3,0.5-0.2,1,0.2,1.4c0.2,0.2,0.4,0.4,0.6,0.5c0.1,0.1,0.3,0.2,0.5,0.3c-0.3-0.2-0.2-0.2,0.1,0.1c0.1,0.1,0.3,0.1,0.4,0.1
					c1.1,0.2,2-0.9,1.6-2C354.9,634.3,353.9,633.9,353.2,634.3z"/>
				<path id="XMLID_112_" class="st9" d="M362.9,638.9c-0.7-0.2-1.6-0.1-2.2,0.4c-0.7,0.5-0.2,1.5,0.5,1.5c0.1,0,0.3,0.2,0.4,0.2
					c0.3,0.2,0.6,0.2,0.9,0.2c0.5-0.1,1-0.4,1-1C363.6,639.7,363.4,639.1,362.9,638.9z"/>
				<path id="XMLID_113_" class="st9" d="M361.3,631.4C361.3,631.4,361.3,631.4,361.3,631.4L361.3,631.4
					C361.2,631.4,361.2,631.4,361.3,631.4c-0.6,0.1-1.1,0.5-0.8,1.1c0,0,0,0,0-0.1c0.1,0.7,0.7,1,1.3,0.8c0,0,0.1,0,0.1,0
					c0.6-0.1,0.8-0.9,0.5-1.4C362.1,631.4,361.7,631.3,361.3,631.4z"/>
				<path id="XMLID_114_" class="st9" d="M361.6,626.8c-0.5-0.3-1-0.3-1.6-0.3c-0.4,0-0.7,0.1-1-0.1c-0.6-0.4-1.2,0.5-0.9,1
					c0.3,0.5,0.8,0.8,1.3,1c0.5,0.2,1.3,0.4,1.9,0.1C362,628.2,362.3,627.2,361.6,626.8z"/>
				<path id="XMLID_115_" class="st9" d="M376.4,624.1c-1.1,0.1-1.9,0.8-2.9,1c-1.3,0.3-1.8-0.1-3-0.7c-0.7-0.4-1.6-0.1-2.1,0.5
					c-0.4,0.5-1.1,0.8-1.5,1.4c-0.1,0.1-0.2,0.3-0.3,0.4c0,0,0,0.1-0.1,0.1c-0.7-0.1-0.9,0.7-0.5,1.1c0.9,0.9,1.9,0.4,3,0.1
					c1.1,1,2.5,1.6,4.1,1.5c0.4,0,0.8-0.1,1.2-0.2c0.2,0,0.4,0.1,0.5,0.1c0.9,0.2,1.1,0.1,2,0c1.2-0.2,2.4,0.1,2.9-1.6
					C380.5,625.6,378.5,623.9,376.4,624.1z"/>
				<g id="XMLID_110_">
					<path id="XMLID_118_" class="st9" d="M371.5,633.5c-0.6,0-1.2,0.5-1.5,1.1c-0.3,0.5-0.2,1.2,0.1,1.6c0.1,0.1,0.2,0.2,0.3,0.3
						c0.3,0.4,0.7,0.5,1.2,0.6c1.1,0,2-0.9,1.9-2C373.4,634.1,372.5,633.4,371.5,633.5z"/>
					<path id="XMLID_120_" class="st9" d="M370.4,636.6C370.4,636.6,370.4,636.6,370.4,636.6C370.4,636.6,370.3,636.6,370.4,636.6
						C370.4,636.6,370.4,636.6,370.4,636.6z"/>
					<path id="XMLID_121_" class="st9" d="M370.3,636.5C370.3,636.5,370.3,636.5,370.3,636.5C370.1,636.3,370.1,636.3,370.3,636.5z"
						/>
				</g>
				<path id="XMLID_122_" class="st9" d="M379.2,631.3c-0.7,0.4-1.3,0.9-1.7,1.6c-0.1,0.3-0.2,0.5-0.3,0.8c-0.4,0.3-0.8,0.7-1.1,1
					c-0.4,0.6-0.5,1.3-0.3,1.9c-0.1,0.9,0.4,1.7,1.5,1.9c0.3,0,0.5-0.1,0.6-0.3c0.2,0,0.4-0.1,0.5-0.2c0.4-0.2,1.1-0.5,1.4-0.8
					c0.2,0,0.3,0,0.5,0c1.4-0.1,2.1-1.2,2.4-2.3c0.3-1,0.3-2.2-0.4-3.1C381.7,630.9,380.3,630.7,379.2,631.3z"/>
				<path id="XMLID_127_" class="st9" d="M394.5,632.2c-0.1-0.1-0.6-0.4-0.7-0.4c0,0-0.3-0.3-0.4-0.3c-0.7-0.5-1.4-0.8-2.2-0.7
					c-0.5,0-0.9,0.2-1.3,0.4c-0.8,0.1-1.5,0.2-2.1,0.8c-0.4,0.3-0.6,0.8-0.7,1.2c-0.2,0.2-0.4,0.4-0.3,0.8c0.2,1.3,1.4,2.1,2.4,2.7
					c0.7,0.4,1.4,0.4,2.2,0.4c0.7,0,1.6,0.2,2.3,0.2c1.5,0,2.6-1.9,2-3.2C395.5,633.3,395.1,632.7,394.5,632.2z"/>
				<path id="XMLID_123_" class="st9" d="M369.2,645.3c-0.1,0.8,0.3,1.5,1,1.9c0.4,0.2,0.8,0.2,1.2,0.1c0.3,0,0.5-0.1,0.8-0.2
					c0.4-0.3,0.7-0.8,0.6-1.3c-0.1-0.3-0.2-0.6-0.3-0.8C371.9,643.4,369.5,643.6,369.2,645.3z"/>
				<path id="XMLID_124_" class="st9" d="M367.1,681.8c-0.7-0.3-1.5-0.5-2.3-0.5c0-0.1,0-0.1-0.1-0.2c-0.3-0.4-0.8-0.5-1.3-0.2
					c-0.2,0.1-0.3,0.2-0.4,0.3c-1,0-2.1,0.5-2.3,1.7c-0.1,1.1,0.5,2.2,1.7,2.4c0.1,0,0.1,0,0.1,0c0,0,0,0,0.1,0
					c0.2,0.1,0.3,0.1,0.5,0.2c0.5,0.2,0.9,0.3,1.4,0.3c0.8,0.1,1.7,0.2,2.5-0.1c0.8-0.3,1.3-1,1.4-1.9
					C368.3,683,367.9,682.1,367.1,681.8z"/>
				<path id="XMLID_130_" class="st9" d="M368.6,689.5c-0.7-0.6-1.6-0.7-2.3-0.2c-0.6,0.5-0.7,1.4-0.1,1.9c0,0,0.1,0.1,0.2,0.1
					c0.2,0.2,0.5,0.2,0.7,0.2c0.1,0,0.1,0,0.2,0.1c0.2,0,0.5,0,0.7,0C369.1,691.7,369.4,690.1,368.6,689.5z"/>
				<path id="XMLID_125_" class="st9" d="M438.8,606c-0.5-0.4-1.1-0.6-1.9-0.4c-0.2,0-0.3,0.1-0.5,0.2c-0.5,0-1,0-1.5,0
					c-2.5,0-5.6,0.2-7.4,1.9c-0.4,0.4-0.6,1.3-0.3,1.8c1.2,2.6-3.1,3.1-4.8,4c-1.5,0.8-3.3,2.1-3.6,4c-0.7,4.1,3.8,4.2,6.5,3.5
					c1.8-0.5,3-1.4,4.3-2.6c1-0.9,2.9-1.7,3.3-3.4c0.1-0.5,0-1.1-0.1-1.6c0,0-0.1-0.1-0.1-0.1c0.2-0.1,0.4-0.2,0.7-0.5
					c2.1-0.3,3.7-2.2,5.3-3.3c0.5-0.2,0.9-0.6,1-1c0.2,0.1,0.4,0.1,0.6,0c0.1,0,0.1-0.1,0.2-0.1c0.2-0.1,0.3-0.4,0.2-0.7
					C440.2,606.8,439.6,606.3,438.8,606z"/>
				<path id="XMLID_126_" class="st9" d="M447.7,558.5c-0.4-0.1-0.8-0.1-1.2,0c0,0,0,0,0,0c0,0-0.1,0-0.1,0
					c-1.3,0.4-1.6,2.2-0.7,3.1c0.8,0.9,2.7,0.8,3.1-0.5l0-0.1C449.2,560,448.8,558.8,447.7,558.5z"/>
				<path id="XMLID_128_" class="st9" d="M403.6,549.8c-0.9-0.5-2.2-0.7-3.2-0.6c-1.3,0.1-2.8,0.7-3,2.2c-0.2,1.3,0.6,2.4,1.7,2.9
					c0.3,0.1,0.6,0.2,0.9,0.3c0.6,0.6,1.5,0.9,2.4,0.8c1.1-0.1,2.2-0.8,2.6-1.8C405.6,552.1,404.9,550.5,403.6,549.8z"/>
				<path id="XMLID_129_" class="st9" d="M391.1,539.6c0,0-0.1,0-0.1,0c-1.3-0.5-2.7,0.4-2.6,1.8c0.1,1.3,1.8,2.3,2.9,1.4
					c0,0,0.1-0.1,0.1-0.1c0.5-0.4,0.8-0.9,0.7-1.6C392,540.5,391.7,539.8,391.1,539.6z"/>
				<path id="XMLID_131_" class="st9" d="M382.6,540.6c-1.4-1.7-3.6-1.8-5.6-1.4c-1.3,0.3-1.2,0-2.4-0.6c-1.1-0.6-1.9-0.8-3.1-0.8
					c-1.7,0.1-3.5,0.8-4.6,2.1c-2.9,3.6,2.5,7.8,6,6.2c0.9-0.4,1.5-1.7,2.3-2c0.5-0.2,1.6,0.3,2.2,0.4c0.8,0.1,1.5,0.2,2.1,0.1
					c0.4,0.2,0.7,0.3,1.1,0.3C382.9,545,384,542.3,382.6,540.6z"/>
				<path id="XMLID_132_" class="st9" d="M362.4,541.7c0,0-0.1,0-0.1,0c-0.8-0.3-1.7,0.3-1.6,1.1c0,0,0,0.1,0,0.1
					c0,0.9,1.2,1.4,1.9,0.9C363.4,543.3,363.3,542,362.4,541.7z"/>
				<path id="XMLID_137_" class="st9" d="M349.1,544.5C349,544.4,349,544.4,349.1,544.5c-1-0.8-2.1-0.4-2.6,0.5
					c0.4-0.7-0.1,0.2-0.1,0.1c-0.1,0.2-0.1,0.3-0.1,0.5c-0.1,0.4,0.2,0.9,0.5,1.2c0.2,0.3,0.5,0.4,0.9,0.5c0,0,0.1,0,0.1,0
					c0.7,0.1,1.5-0.2,1.7-0.9C349.8,545.8,349.7,544.9,349.1,544.5z"/>
				<path id="XMLID_133_" class="st9" d="M368.7,535c-1.4-0.9-2.8,0.4-4.2,0.2c-1.8-0.3-2.3,2.4-0.5,2.8c0.8,0.2,1.6,0.3,2.3,0.3
					c0.3,0,0.6-0.1,0.9-0.1c0.1,0,0.4,0,0.1,0c0.3,0,0.5,0,0.8,0c0.7-0.1,1.3-0.6,1.5-1.3C369.8,536,369.3,535.4,368.7,535z"/>
				<path id="XMLID_134_" class="st9" d="M352.4,566.8c-0.1,0-0.1,0.1-0.2,0.2c-0.8-0.2-1.8-0.2-2.5-0.1c-1.1,0.2-2,0.4-2.9,1
					c-0.3,0.2-0.8,0.6-0.9,0.9c-0.1,0.1-0.2,0.2-0.2,0.3c-0.1,0-0.3,0.1-0.4,0.1c-0.9,0.3-1.5,1.4-1.1,2.3c2.8,5.9,9.9,2.2,14,0
					c1.1-0.6,1-2.1,0.5-3C357.6,566.6,354.5,565.2,352.4,566.8z"/>
				<path id="XMLID_135_" class="st9" d="M339.7,587.7c-0.6-0.4-1.1-0.8-1.8-1.1c-1-0.5-2-0.4-2.9,0.1c-0.5,0.3-0.7,0.6-1,1
					c0,0,0,0,0,0c-0.2,0.1-0.5,0.1-0.7,0.2c-0.4,0.1-0.7,0.4-0.9,0.8c-0.3,0.3-0.5,0.6-0.7,1.1c-0.3,1.3,0.4,2.5,1.4,3.2
					c1.3,1,3,1.3,4.4,0.4c0.3-0.2,0.6-0.4,0.8-0.6c-0.1,0.1,0.5,0,0.7,0c0.9-0.1,1.6-0.4,2.2-1.1c0.5-0.5,0.6-1.3,0.3-1.9
					C341.3,588.8,340.6,588.2,339.7,587.7z"/>
				<path id="XMLID_136_" class="st9" d="M307.5,581.5c-0.3-0.3-0.8-0.5-0.9-0.6c-0.8-0.4-1.8-0.7-2.8-0.5c-2.1,0.3-3.5,2.5-3.4,4.6
					c0.2,2.1,2.2,3.7,4.2,4c1.6,0.2,3-0.2,4.1-1.1c0.3,0.1,0.6,0.1,0.9,0.2c2,0.4,4.4-0.1,5.5-2C317.3,582.1,309.7,578,307.5,581.5z
					"/>
				<path id="XMLID_138_" class="st9" d="M291,582.4c-1.1,0.1-1.7,0.9-2,1.9c-0.4,1.3,1.3,2.6,2.5,2.1c0.5-0.2,0.9-0.4,1.1-1
					c0.1-0.5,0.4-1,0.3-1.5C292.6,583.1,292,582.3,291,582.4z"/>
				<path id="XMLID_143_" class="st9" d="M438.1,522.1c-0.6-0.4-1.2-0.8-1.9-0.9c-0.8-0.2-1.5,0.3-2.3,0.3c-0.1,0-0.8-0.3-1.1-0.5
					c-0.8-0.4-1.5-0.6-2.4-0.6c-1,0-1.6,0.9-1.9,1.7c-0.7,2.4,0.1,4.1,2.5,4.7c0.8,0.2,1.6,0.6,2.4,0.8c0.6,0.1,1.1,0.1,1.6,0.1
					c0,0,0,0,0.1,0c1.5,0.6,3-0.1,4-1.3C440.3,524.9,439.5,523,438.1,522.1z"/>
				<path id="XMLID_139_" class="st9" d="M445.2,492.1c-0.6-0.1-1.2,0-1.7,0.4c-0.3,0.2-0.5,0.5-0.8,0.8c-1.2,1.3,0.4,3.6,2,2.9
					c0.4-0.2,0.9-0.4,1.2-0.6c0.4-0.3,0.7-0.7,0.8-1.2c0,0,0,0,0-0.1C447,493.4,446.2,492.2,445.2,492.1z"/>
				<path id="XMLID_140_" class="st9" d="M427.9,561c0,0-0.1,0-0.1,0c-0.8,0.2-1.1,1.3-0.6,2c0.5,0.6,1.6,0.8,2,0.1
					c0,0,0-0.1,0.1-0.1C429.9,561.9,429.1,560.7,427.9,561z"/>
				<path id="XMLID_141_" class="st9" d="M411.5,568.1c-1.5-1.6-3.6-0.9-5.3-1.6c-2.2-1-4-2-6.6-2.1c-0.3,0-0.5,0-0.7,0
					c-0.7-1.1-2.2-1.5-3.5-1.6c-0.4,0-1.2,0.2-1.9,0.3c0.8-1.4,1.7-3,0.9-4.5c-1-2-5-2.6-7-2.8c-2.3-0.2-6.2,0.3-7.7,2.3
					c-0.2,0.3-0.4,0.6-0.5,0.9c-0.8-0.8-1.5-1.6-2.5-1.9c-2.3-0.7-3.6,0.9-5.8,1.3c-2.3,0.4-6.9-1.2-9.2,0c-0.5-0.1-1.1-0.2-1.6-0.3
					c-3.8-0.6-8.5-0.4-12.1-1.6c-0.8-0.2-1.2,0.7-0.5,1.1c2.6,1.4,6.5,1.1,9.3,1.6c3.3,0.7,6.9,1,10,2.5c2.1,1,3.1,1.1,5.1,1.6
					c0.2,0.2,0.4,0.4,0.6,0.5l0.7,0.4c0.3,0.2,0.6,0.2,0.8,0.2c0.5,0.4,1,0.9,1.7,1.4c1.3,0.7,2.1,0.5,3.5,0.6
					c1.2,0,2.5,0.4,3.7,0.2c1.1-0.2,2-1.5,3.1-1.7c2.5-0.4,4.2,3.1,6.2,4c3,1.4,6.1-0.5,9.3,0.1c1.2,0.2,2.4,0.9,3.6,1.1
					c1.4,0.3,3.8-0.5,4.7,0.1C411.5,571,412.4,569,411.5,568.1z"/>
			</g>
			<path id="XMLID_119_" class="st9" d="M307.5,605c-3.2-0.5-6.4-1.6-9.6-2.3c-2.7-0.6-5.3-1.3-7.9-2.3c-2.6-1-4.7-1.9-7.4-1.9
				c-1.2,0-2.5-0.1-3.8,0.1c-0.8,0.2-1.5,0.6-2.3,0.4c-1.4-0.3-2.9-1.3-4-2.1c-0.9-0.7-1.9-1.3-2.7-2.1c-0.9-0.8-1.5-2.1-2.4-2.8
				c-1.2-1-2.7-0.3-4.1-0.5c-0.5-0.1-0.9-0.3-1.4-0.4c-0.6-0.1-1.2,0-1.9-0.1c-0.8-0.1-1.3-0.6-2.1-0.5c-1.2,0-1.8,0.8-2.8,1.4
				c-1.8,1-3.7,1.7-5.5,2.7c-2.6,1.5-5.5,3.1-8.3,4.3c-2,0.9-3.9,1.6-6.1,1.7c-3.2,0.1-5.8-1.1-8.9-1.5c-2.4-0.3-4.9,0-7.3,0
				c-2.6-0.1-4.9-1.1-7.4-1.4c-1.9-0.3-3.9,0-5.8,0c-2.7,0-3.4-2.3-4.5-4.5c-1.4-2.9-2.4-3.7-5.5-4.9c-1.4-0.5-2.7-1-3.9-1.8
				c-1.6-1-2.6-2.5-4-3.8c-1.5-1.4-3.4-1.7-5-2.9c-1.2-0.9-2.1-1.9-3.4-2.6c-1.3-0.8-2.7-1.4-4.1-2.1c-2.3-1.2-3.5-3.6-5.8-4.6
				c-2.5-1.1-5.1,0.4-7.2,1.6c-2.3,1.3-4.9,2.3-6.7,4.2c-1.8,1.8-4.9,5.7-4.3,8.2c0.2,1,4.2,3.9,4.9,4.6c4.9,4.7,9.5,9.8,14.1,14.9
				c10.3,11.3,19.8,24,31.7,33.6c4.2,3.4,9.1,6.2,14.1,8.3c7,3,14.8,3.5,22.2,4.6c5.9,0.8,12,2,18,2.5c7.7,0.7,13.5-1,20.3-4.5
				c9.7-5,19.6-10.8,26.3-19.6c2.4-3.1,6.1-7.1,6.4-11.2c0.1-1.3,0-2.6,0-3.9c0-1.2,0.1-2.3-0.2-3.4C309,609.3,308.3,608,307.5,605z
				"/>
			<path id="XMLID_144_" class="st9" d="M150.5,476.4c-2,0-2,3.1,0,3.1C152.5,479.6,152.5,476.4,150.5,476.4z"/>
			<path id="XMLID_146_" class="st9" d="M184.6,464.5c-0.3-0.1-0.7-0.1-1.1-0.2c-0.6-0.1-1.2,0.6-1.2,1.2c0,0.6,0.5,1.2,1.2,1.2
				c0.4,0,0.7-0.1,1.1-0.2C185.5,466.2,185.5,464.8,184.6,464.5z"/>
			<path id="XMLID_160_" class="st9" d="M1304.8,1012.2C1144.8,994,990.9,963,836,919.9c-82-22.8-166.4-46.5-242.6-84.7
				c-36.3-18.2-69.8-40.8-104.4-61.9c-38.2-23.3-79.4-38.3-116.3-63.5c-6-4.1-8.7-8.8-15.9-11.3c-8.2-2.8-19.5,1.8-26.8-1.4
				c-10.5-4.7-12.2-13.9-18.9-23c-9.1-12.1-24-20.4-32.5-32.1c-6.8-9.5-6.7-16.9-16.9-24c-13-9-30.8-6.2-45-11
				c-11.1-3.7-46.9-15.7-43-30c11-0.1,17.8-5.2,24.7-10.9c1.4-0.6,2.7-1.2,4.1-1.8c3.1-1.2,6.8-1.1,10.1-1.4
				c4.7-0.4,9.6-0.4,14.2-1.5c6.2-1.5,12.4,0.3,18.3,2.3c9.3,3.3,17.8,0.5,27.1-1.1c5.9-1,13.1-0.9,18.9,0.9c2.4,0.7,4.5,2,6.9,2.5
				c3.1,0.6,6.2,0.7,9.3,1.3c1,0.2,1.5-1.3,0.4-1.6c-3-0.8-6.1-1.2-9.1-2c-2.6-0.7-4.9-2.1-7.6-2.7c-4.6-1.1-8.8-0.2-13.5,0.4
				c-2.9,0.4-6,0.4-8.9,1c-3.6,0.7-6.7,1.7-10.4,1.2c-2.2-0.3-4.5-0.4-6.7-0.6c-3.6-0.3-6.4-1.8-9.8-2.7c-4.6-1.2-9.8-1.4-14.5-1.3
				c-3.9,0.1-7.7-0.2-11.6-0.6c1.1-0.4,2.3-0.8,3.5-1c2.4-0.4,4.6,0.6,7.1,0.3c2.6-0.2,4.9-1.1,7.6-1.2c3.2-0.1,6.3,0.3,9.4,0.8
				c5.1,0.7,10.5,1.1,15.6,0.4c2.3-0.3,4.4-0.7,6.6-0.8c0.3,0.2,0.7,0.4,1,0.6c0.8,0.4,1.7,0.7,2.7,0.7c1.4,0.1,1.7-0.4,2.8-0.9
				c0.1,0,0.1-0.1,0.2-0.1c1.8,0.3,3.7,0.6,5.6,0.8c5.2,0.5,10.6-0.7,15.8-0.8c0.2,0,0.4,0,0.5,0c-0.7,0.6-0.9,1.8-0.1,2.6
				c2.1,2,4.3,1.5,6.8,2.4c1.3,0.4,2.6,0.8,4,0.7c2.2,1.6,4.4,3.1,6.7,4.5c0,0,0,0.1,0,0.2c0.1,5.3,7.6,4.9,11.9,4.9
				c1.3,0.3,2.7,0.4,4.1,0.5c0.8,0.4,1.4,1.2,2.4,2.4c0.6,0.8,1.3,1.4,2.2,1.8c0.8,0.3,2.8-0.2,3.2,0c0.4,0.3,1,2.6,1.7,3.2
				c3.8,3.1,11-0.3,8.4-5.5c-1.3-2.6-4.8-3.1-7.2-4.3c-2.2-1.1-4.4-3-6.9-2.9c-0.1,0-0.3,0-0.4,0.1c-7.2-13.3-16.8-18.8-28.3-22.6
				c0,0,0-0.1,0-0.1c-0.5-1-1.9-1.2-2.8-1.5c-1-0.3-1.9-0.9-2.9-0.9c-0.5,0-0.7,0.2-0.8,0.6c-8.2-2.2-17.2-4.2-26.7-7.7
				c-0.7-0.3-1.5-0.6-2.2-0.9c-2-2.4-3.9-3.8-6.3-5.8c-2.1-1.7-3.2-4.1-5.2-5.8c-2.2-1.9-5.2-2.3-7.9-3.4c-3.9-1.6-7.6-3.1-11.2-5.2
				c-1.3-0.7-2.3,1.1-1.1,1.9c2.6,1.8,4.9,3.9,7.4,5.9c-3.8-1.9-7.7-3.6-11.7-4.9c-12.6-4.2-27.1-12.8-40.1-12.5
				c-1.2,0-2.3,0.1-3.3,0.2c-2.6-0.7-5.3-2.1-8-2.3c-0.7-0.1-1.2,0.4-1.9,0.5c-2.3,0.4-3.6,0.1-5.6-0.7c-0.5-0.2-0.8,0.6-0.4,0.9
				c2.5,1.7,3.6,2.1,6.6,1.6c2.2-0.4,4.1-0.1,6,0.5c-13.1,2.3-15.5,9.5-33.1-0.4c-5.9-3.4-11.8-7.7-17.5-12.3
				c0.1-0.1,0.3-0.1,0.4-0.2c1.2-0.6,1.6-1.8,2.6-2.6c1.8-1.4,1.6-0.5,3.2,0.8c0.8,0.7,1.7,1.4,2.8,1.7c0.4,0.5,1,0.7,1.7,0.6
				c0.1,0,0.3,0,0.4-0.1c0.2,0,0.4-0.2,0.6-0.4c0.9-0.1,1.7-0.1,2.1,0.2c1,0.6,1.8-0.9,0.9-1.6c-1.1-0.8-1.9-0.7-3.1-0.9
				c-0.2-0.1-0.3-0.2-0.5-0.3c-0.1,0-0.3,0-0.4-0.1c-0.1,0-0.1,0-0.2,0c-2.2-0.9-2.9-2.4-4.8-3.7c-3.1-2.2-5,1.7-8,1.3
				c-2.9-0.4-6.2-3.3-9.3-4.7c-0.7-0.6-1.4-1.2-2.1-1.8c0.4-0.4,0.3-1.3-0.5-1.3c-0.4,0-0.7,0-1.1,0c-1-0.9-2.1-1.8-3.1-2.6
				c0,0,0,0,0,0c0.3-0.2,0.6-0.3,0.7-0.4c1.2-0.4,2.4-0.7,3.6-1c1.2-0.3,1.8-1.1,2-2.1c0.7,0,1.3-0.1,2,0c-0.8-0.1,0.3,0.4,0.8,0.7
				c0.8,0.4,1.4,0.4,2.1,0.2c0.1,0.1,0.3,0.3,0.7,0.6c1.7,1.5,5.9,1.2,6.7-1.3c0.9-2.9-3.1-4.6-7.1-5.5c-0.7-0.5-1.3-0.9-2.4-1
				c-1-0.1-1.9-0.1-2.8,0.1c-0.1,0-0.2,0-0.3,0c0,0,0,0,0,0c-0.2-0.3-0.6-0.6-1-0.7c0.2-0.2,0.3-0.3,0.5-0.5
				c2.5,0.2,5.1,0.7,7.6,0.5c0.4,0,0.8-0.1,1.1-0.1c0.8,0.7,1.5,1.5,2.6,1.9c1.8,0.7,3.3-0.2,4.8,0.2c1.5,0.5,2.5,1.9,4.3,2.3
				c2.9,0.6,7,2,9.3-0.5c0.9-0.9,1.3-2.1,1.3-3.3c0.2,0.2,0.4,0.6,0.7,0.6c1.9,0.3,2.8-0.3,4.8-0.6c3.2-0.6,2.6,0.1,5,1.8
				c1.6,1.1,3.7,1.4,5.4,2.3c2.2,1.1,3.1,2,4.5,4.1c0.8,1.2,2,2.8,3.6,2.9c3.6,0.1,2.8-3.7,1.5-5.7c-1.3-1.9-2.5-2.7-3.9-3.1
				c-1.6-1.5-4.1-2.5-6-3.1c-1.9-0.6-2.7-0.5-4.2-1.7c-0.4-0.3-0.5-0.9-1-1.1c-1.4-0.7-2.6-0.1-4,0.3c-2.1,0.7-3.9,1.6-6,1.1
				c-0.3-0.1-0.6-0.2-1-0.3c-0.5-1.1-1.3-2-2.3-2.6c-2.3-1.3-4.8-0.6-7.2-0.2c-1.6-0.6-3.1-1.3-4.6-2c1.7,0,3.5-0.2,5.6-0.3
				c3.6-0.2,7.2-0.2,10.9-0.3c2.9,0.4,5.7,1.2,8.7,0.4c0.4-0.1,1-1,1.2-1c-0.1,0,0.4,0.6,0.8,0.6c1.9,0,3.1,1,4.7,1.7
				c2,0.8,4.1,1,5.3-1c0.2-0.3,0.2-1-0.2-1.2c-1.8-1.4-4.1-1.6-6.3-1.6c-0.2-0.1-0.4-0.2-0.6-0.3c-1.2-0.5-2.5-1.2-3.7-1.5
				c-0.7-0.2-1.4-0.1-2,0c-0.1-0.5-0.3-1.1-0.6-1.5c0.2-0.1,0.4-0.1,0.6-0.2c9.9-3.9,8.8-11.2,21.5-10.1c5.8,0.5,9.7,7,16.1,8.8
				c0,0.1,0,0.2,0.1,0.2c0.8,1.5,1.5,2.8,3,3.8c1.5,1,2.8,0.7,4.3,1.3c-0.2,0.4-0.3,0.8-0.4,1.2c0,0.5,0,1,0.2,1.5
				c-0.1-0.1-0.2-0.1-0.3-0.2c-0.6-0.3-1.2-0.5-1.8-0.6c-1.3-0.2-2.9-0.3-4.1,0.2c-1.3,0.5-1.5,2.4,0,2.9c0.8,0.3,1.7,0.2,2.6,0.1
				c0.2,0.3,0.4,0.5,0.8,0.5c0.3,0,0.5-0.1,0.7-0.3c0.8,0.2,1.4,0.4,2.2,0.4c0.5,0.5,1.3,0.2,1.5-0.4c0.5,0.5,1.2,0.8,1.9,1.1
				c0.4,0.1,1.3,0.8,0.9,0.1c1.1,1.5,3.2,2.1,4.7,0.6c1.2-1.3,1.5-2.5,1.2-4.2c-0.2-1.1-1.4-1.9-2.5-1.9c-0.9,0-1.7-2.1-2.2-2.6
				c-1.3-1.2-2.1-0.9-3.8-1c-0.9-0.1-1.9-0.2-2.8-0.2c-2.3-0.1-3.2-1.3-4.3-3.1c-0.2-0.3-0.4-0.4-0.6-0.4c-8.8-12.4-18-15.4-34.7-13
				c-16.5,2.3-24.7,3.3-43.5-5c-8.7-3.9-3.9-6.9-15.6-7.2c-6.2-0.1-13,6.9-18.8,6.6c-13.4-0.7-19.1-17.8-33.1-12.4
				c-1.1-1.1-2-2-3.7-2.2c-2.1-0.2-3.4,1.2-5.3,1.7c-2.6,0.7-5.3-0.2-7.8-0.7c-2.1-1.8-4.9-2.3-7.8-2.3c-2.6,0-5.3,1.2-7.7-0.3
				c-1.5-0.9-2.3-2.6-3.9-3.4c-2.2-1.2-4.2-0.4-6.6-0.7c-2.5-0.3-4.6-1.9-7.2-2.1c-1.2-0.1-2.5,0-3.7,0.4
				C-15,395.7-28.7,378.2-39,369v637.7l1342,26.3C1302.5,1026,1303.1,1019,1304.8,1012.2z M264.4,552c0.3,0,0.6,0.1,0.6,0.1
				c1.9,0,4-0.3,5.8-0.9c2.7-1,3.6-1.2,5.8,1.1c0.4,0.5,0.9,0.9,1.3,1.4c-1.7-0.2-3.4-0.4-5.3-0.6c-2.5-0.2-5-0.3-7.5-0.2
				c-0.4-0.2-0.7-0.5-1.1-0.7C264.2,552.1,264.3,552,264.4,552z M230.9,551.7c-1.9,0.3-3.8,0.6-5.7,0.5c-1.3-0.1-2.3-0.4-3.3-0.7
				C225.3,550.8,228,551.1,230.9,551.7z M50.5,433.9c-3,1-5.9,2.2-9,2.6c-5-0.8-10-2.7-14.9-5.4c0,0,0.1,0,0.1-0.1
				c7.1,2,15.6-1.4,22.6,0.5c0.4,0.1,0.9,0.2,1.4,0.3C50.5,432.5,50.5,433.2,50.5,433.9z M110.9,468c-0.9-0.1-1.8,0-2.7,0
				c-2,0.1-3.1-0.2-5-0.7c-0.6-0.1-1.2-0.3-1.8-0.4c-1.1-1.4-1.6-3.2-1.5-5.6c0.9,0.5,1.8,0.8,2.5,0.1c0.2-0.2,0.1-0.4-0.1-0.6
				c-0.7-0.5-1.4-1-2.1-1.6c0.3-1.5,0.8-3.2,1.5-5.2c0.7,0.1,1.4,0.2,2.1,0.3c0.7,0.6,1.5,1.1,2.8,1.4c1.2,0.2,2.5-0.2,3.8-0.1
				c0.4,0.1,0.7,0.1,1.1,0.2c1.4,0.5,2.8,1.6,4.1,2.2c2.5,1.2,5.3,2.4,8.1,2.5c2.1,0.1,3.7-0.5,5.6,0.6c0.4,0.2,0.7,0.5,1,0.7
				c-0.1,0-0.1,0-0.2,0c-0.8,0.2-1.5,0.3-2.2,0.4c-1.7-0.2-3.5-0.2-5.2,0c-0.5,0-1-0.1-1.6-0.1c-2.5-0.1-5.4,0.5-7.6-0.5
				c-1.2-0.5-1-1.1-2.5-1.4c-1.9-0.3-4.2,1.3-6,0.3c-0.6-0.3-1.3,0.5-0.8,1c0.8,0.6,1.2,0.8,2.2,1c0.7,0.2,1.6,0,2.3,0.1
				c1.7,0.4,1.1,0.3,2.3,1.4c2.1,2,3.7,2,6.1,2c-0.1,0.3-0.1,0.6-0.2,0.9c-0.6,0.1-1.2,0.2-1.8,0.2c-0.9,0.1-1,1.2-0.4,1.5
				C113.3,468.5,112,468.1,110.9,468z"/>
			<path id="XMLID_145_" class="st9" d="M173.3,492.1c-0.9-0.3-1.8-0.4-2.6-0.6c-0.6-0.1-0.8,0.6-0.4,0.9c0.7,0.5,1.5,0.9,2.2,1.5
				c0.6,0.5,1.5,1.5,2.3,0.6C175.5,493.4,174.2,492.4,173.3,492.1z"/>
			<path id="XMLID_147_" class="st9" d="M228.7,509.3c-1.9-0.5-3.6-1.5-5.4-2.2c-1-0.4-1.6,1.2-0.7,1.7c1.5,0.7,2.9,1.6,4.5,2.3
				c0.9,0.4,1.9,0.5,2.6,1.1c0.4,0.3,0.9,0,1.1-0.4C231.1,510.4,229.8,509.6,228.7,509.3z"/>
			<g id="XMLID_1_">
				<g id="XMLID_541_">
					<path id="XMLID_543_" class="st9" d="M-32.4,573.9c13.9,6.4,23.8,19.8,38,25.5c10.8,4.3,24.3,5.4,35.7,7.6
						c23.3,4.6,45.9,11.5,67.8,20.5c25.2,10.5,49.4,23.5,73.2,36.6c13.4,7.3,25,17.9,37.8,25.2c19.1,10.9,44.9,14.8,65.7,22.7
						c19.2,7.3,41,11.7,59.6,19.3c8.9,3.6,14.5,11.7,23.5,15.6c6.3,2.8,13.7,4.6,20.4,7.2c29.5,11.2,62.8,20.4,88.4,36.6
						c5.3,3.3,6,5.4,13.7,7.7c7.4,2.2,14.9,4.9,22,7.7c20.4,8.1,40.8,15.8,61.2,24.1c11.4,4.6,16,6.5,23.2,15.4
						c5.5,6.8,10.3,15.9,17.2,21.4c15.6,12.3,41.4,18,60,26.1c28.4,12.3,375.9,136.5,404.7,148.3l-317.4,7.5l-832.4,25.2l0-514.4
						C-57.1,563.8-44.2,568.6-32.4,573.9z"/>
				</g>
				<path id="XMLID_655_" class="st20" d="M51.5,745l-55.1-36l-26.3-14.5l-18.7-16.9l-34.2-16.5l49.3,40.7l-29.1-5.1l52.8,36.4
					c0,0,43.6,48.9,43.6,53.7c0,4.9-104.1-61.5-104.1-61.5l-23.9-4.3l67.5,44.7l59.1,55.6l-90.2-40.8L1,824l39.9,22.7l32,38
					c0,0,37.3-9.7,33.6-15.1c-3.8-5.4-16.6-61-21.5-70.2C80.1,790.2,51.5,745,51.5,745z"/>
				<path id="XMLID_615_" class="st20" d="M133.7,644.9c-4.9-2.5-77.5-26-83.4-25.6c-5.9,0.4-133.1-49.6-133.1-49.6l56,42.6l-56,1.7
					l25,13.2l31.1,32.1l93.4,43l-85.8-28.7l30.9,21.7l47,32.7l37-36.2l-38-60.7l54.5,25.7L133.7,644.9z"/>
				<path id="XMLID_651_" class="st20" d="M191.4,1084.1c-1.3-4.5-82.4-74.7-85-77.8c-2.6-3.1-24.9-67.2-24.9-67.2l-55.8-52.3
					l-105-77.3l-26.2,4l11.2,47l82.2,34.2L45,923.8l26.1,34.9L9.3,914.3l61.4,56.1l8.1,43l-76.3-65c0,0-103.6-56.4-96.9-54.2
					s87.5,61.6,87.5,61.6l29.8,38.8l-2.3,26l-27.5-4.6l-87.5-64.7l127.9,132.3L191.4,1084.1z"/>
				<path id="XMLID_643_" class="st20" d="M401.8,791l-87.3-23.3l14.9,17.2l-42.4-2.3l8.4,17.3l34.2,27.4l-95-62.4l38.2,53.3
					l49.1,37.9l66.1,39.2l-104.4-27.5l15.4,26.1L126.5,747.1c0,0,100.4-49.6,99-47.9s103.3,40.5,103.3,40.5L401.8,791z"/>
				<path id="XMLID_637_" class="st20" d="M719.9,1062.6c-10.7-12.1-119.3-63.3-119.3-63.3l59.7,17.4l-33.5-18.2l-66.1-29l-18.1,0.5
					l-47.5-24.1l-52.7-20.4l56.6,36.5l68.8,49.1l-57.9-13.6l-76.4-40.2L356,925.7l-56.9-2.3c0,0,65.3,36.8,65.9,38.1
					s61.5,58.2,61.5,58.2l-38.4-5.9l-43.9-18.7l-29.6,3.8l10.5,28l30.9,20.9l124.9,27.5l34.1-6.2l-50.2-25.5l-17.2-16.7l39.7,8.6
					l51.1,24.8l30.5-0.9l-70-51.8l52.7,24.1l49,34.5v-26.7l59.9,17.1L719.9,1062.6z"/>
				<path id="XMLID_623_" class="st20" d="M587.9,880.8l72.5,40.8l-44-17.5l48,29.3l48.4,16.7l27.4,27.1l-99.7-34.7l-39.9-2.4
					l96.5,34.2c0,0,43.1,30.6,43.1,31.8s49.9,34.8,49.9,34.8l-8.3-60.3l-45.5-30.3l-55.8-37.8l81.6,35l12.5-10l-119.4-42.2
					L587.9,880.8z"/>
				<path id="XMLID_385_" class="st20" d="M743.2,932.7l72.5,40.8l-44-17.5l48,29.3l48.4,16.7l27.4,27.1l-99.7-34.7l-39.9-2.4
					l96.5,34.2c0,0,43.1,30.6,43.1,31.8s49.9,34.8,49.9,34.8l-8.3-60.3l-45.5-30.3l-55.8-37.8l212.9,84.8l-118.8-59.8l-119.4-42.2
					L743.2,932.7z"/>
				<polygon id="XMLID_550_" class="st20" points="356,752.7 442.2,805.9 474.3,840 398.8,807.2 316.6,776 392.7,818.1 408,838.7 
					381.2,849.8 328.8,837 426.4,882.7 497.2,928.1 600.5,974.2 675.2,998.6 598,951.2 491.8,904 442.2,857.2 545.3,894 598,900.5 
					552.3,877.2 542.4,856.4 611.8,878.6 586.7,842.3 451.1,784.8 				"/>
				<polygon id="XMLID_649_" class="st21" points="740.1,977.1 712.7,960.1 587.9,915.2 				"/>
				<path id="XMLID_653_" class="st21" d="M592.7,970.7c-2.3-1-43.3-31.5-43.3-31.5l-123-50L592.7,970.7z"/>
				<path id="XMLID_354_" class="st21" d="M965.1,1031.8c-2.3-1-43.3-31.5-43.3-31.5l-123-50L965.1,1031.8z"/>
				<polygon id="XMLID_657_" class="st21" points="728.2,1026.3 713.9,1010.4 634.8,978.6 				"/>
				<path id="XMLID_658_" class="st21" d="M600.5,1018.9c-3.1-4-65.3-42.7-65.3-42.7l-40.3-19.6L600.5,1018.9z"/>
				<polygon id="XMLID_659_" class="st21" points="421.4,949 397.5,931.2 314.5,880.7 				"/>
				<polygon id="XMLID_660_" class="st21" points="484.8,1053.8 447.5,1027 308.2,951.5 				"/>
				<polygon id="XMLID_645_" class="st21" points="376.2,1042.5 348.4,1008.5 282.6,971.1 248.9,948.3 				"/>
				<polygon id="XMLID_684_" class="st21" points="29.9,763.7 -6.7,730 -82.8,693.9 				"/>
				<polygon id="XMLID_775_" class="st21" points="49.3,689.5 25.4,672.3 -52.5,641 				"/>
				<polygon id="XMLID_778_" class="st21" points="76.3,877.7 49.3,845.5 -15.6,817.9 				"/>
				<path id="XMLID_661_" class="st21" d="M551.6,858.4l-36.7-21.9c0,0-54.9-24.4-63.8-27.5c-8.9-3.1-65.3-25.8-65.3-25.8
					L551.6,858.4z"/>
				<polygon id="XMLID_781_" class="st21" points="566.5,842 514.9,816.5 396.4,773.1 				"/>
				<polygon id="XMLID_782_" class="st21" points="-3.6,986.5 -33.8,944.2 -112.5,899.7 				"/>
				<path id="XMLID_783_" class="st21" d="M50.3,924.5c0,0-20.7-20-24-22.3c-3.3-2.2-68.7-39.6-68.7-39.6L50.3,924.5z"/>
				<polygon id="XMLID_784_" class="st21" points="-33.8,769.5 -70.3,740.2 -98.3,730.9 				"/>
				<path id="XMLID_785_" class="st20" d="M6.2,1080.2c-3.4-3.1-24.5-31.4-33-36.4s-71.5-48.3-71.5-48.3v48c0,0,10.7,47.8,15.5,48.9
					S6.2,1080.2,6.2,1080.2z"/>
				<polygon id="XMLID_786_" class="st21" points="367.9,1078.7 220.3,992.9 350.5,1079.3 				"/>
				<polygon id="XMLID_787_" class="st21" points="367.9,818.8 303,779.9 215.7,741.7 				"/>
				<polygon id="XMLID_788_" class="st21" points="487.2,867 432.1,837.9 376.2,816.1 				"/>
				<polygon id="XMLID_545_" class="st22" points="497.2,824.1 490.9,815 481.7,812.9 477.3,816.5 				"/>
				<polygon id="XMLID_546_" class="st23" points="504.3,856.9 494.5,843.6 484.4,842.4 480.8,847.2 				"/>
				<path id="XMLID_548_" class="st22" d="M551.6,858.4c0,0,1.5-5,0-5.8s-9.2-9.3-9.2-9.3l-9.8,2.6v5.4L551.6,858.4z"/>
				<polygon id="XMLID_531_" class="st22" points="451.1,784.8 436.8,754.5 405.3,751.7 401.8,761.9 				"/>
				<path id="XMLID_542_" class="st22" d="M401.8,791c0,0-4.2-16.2-5.4-17.9c-1.2-1.7-41.6-54.1-41.6-54.1s-62.1-27.5-76.6-22.4
					c-14.4,5.1-19.4,27.8-19.4,27.8L401.8,791z"/>
				<path id="XMLID_544_" class="st23" d="M329.4,784.9c0,0,1.7-29.6-12-40.2c-13.7-10.6-44.3-18.8-44.3-18.8l-19.3,5.7
					c0,0,0.9,16.5,1.7,16.7C256.3,748.6,329.4,784.9,329.4,784.9z"/>
				<path id="XMLID_540_" class="st23" d="M442.2,833.4c-0.6-3-20.2-33.1-25-33.6c-4.8-0.5-32.7-2.6-32.7-2.6l-8.3,10.2L442.2,833.4
					z"/>
				<polygon id="XMLID_547_" class="st22" points="426.4,882.7 419.6,870.6 409.2,865.2 401.8,849.2 371.4,839.8 364.9,851.4 				
					"/>
				<path id="XMLID_552_" class="st23" d="M381.2,879.9L364.9,841c0,0-20.8-13.1-24.7-14.1c-3.9-0.9-25.9,2.2-27.9,2.2
					c-2.1,0-16.2,15.2-16.2,15.2l91.9,51l-2.2-14L381.2,879.9z"/>
				<polygon id="XMLID_551_" class="st23" points="487.2,959.2 467.8,939.3 448.1,934.2 442.2,940.1 				"/>
				<polygon id="XMLID_553_" class="st23" points="504.3,997.8 497.2,982.8 480.8,980.7 480.8,985.4 				"/>
				<polygon id="XMLID_554_" class="st23" points="634.8,1002 621.8,985.3 603.3,979.6 598,986.1 				"/>
				<path id="XMLID_555_" class="st22" d="M552.3,978.6c0,0-0.1-11.3-3-14s-16.6-4.7-16.6-4.7l-2.4,6.5L552.3,978.6z"/>
				<polygon id="XMLID_556_" class="st23" points="598,900.5 590.8,886.7 569.4,879.1 560.5,887.6 				"/>
				<path id="XMLID_557_" class="st23" d="M426.4,916.9c-2.7-1.8-8.6-17.5-11.6-17.8c-3-0.4-13.1-2.5-13.1-1c0,1.5,0,9.6,0,9.6
					L426.4,916.9z"/>
				<path id="XMLID_559_" class="st22" d="M579.2,837.2c2.1-4.1-15.2-32.7-15.2-32.7s-30.3-16.4-33.9-17.5
					c-3.6-1.1-19.6,1.9-22.6,3.1c-3,1.1-10.4,14.1-10.4,14.1L579.2,837.2z"/>
				<path id="XMLID_558_" class="st22" d="M431.5,1033.3c-0.6-1.7-36-38.6-38.8-41c-2.8-2.4-20-14-27.8-14.7
					c-7.7-0.7-29.3-1.8-34.6,4.8c-5.3,6.5-9,18-9,18s59,34.1,59.9,34.8c0.9,0.7,66.3,20.2,66.3,20.2l-5.4-13.8L431.5,1033.3z"/>
				<path id="XMLID_561_" class="st23" d="M340.2,1026.4c0.9-3.7-1.8-21.5-2.5-23.6c-0.7-2-24.9-22.1-26.8-23.8
					c-1.9-1.8-16.9-27-16.9-27l-55.4-24.1c0,0-12.1,17.2-11.9,20.9c0.2,3.7,2,23.9,4.4,26.8c2.4,2.9,106.6,64.6,106.6,64.6l18.3,7.7
					L340.2,1026.4z"/>
				<path id="XMLID_562_" class="st23" d="M487.2,1032c0,0-24.4-18.2-22.5-20c1.9-1.8-2.3-18.9-4.1-20.4c-1.8-1.5-16.6-8.6-18.4-9.7
					s-20.2-6.3-22-6s-6.1,17.1-6.1,17.1l73.1,42.5V1032z"/>
				<path id="XMLID_563_" class="st23" d="M336.6,954.3c0,0-13.7-16.3-15.3-16.3c-1.6,0-8-0.3-10.5,0.3c-2.5,0.6-2.7,5.8-2.7,5.8
					l37.7,21.4L336.6,954.3z"/>
				<path id="XMLID_565_" class="st22" d="M40.9,846.7c0-1.3-5.9-15.9-7.1-17.7c-1.2-1.9-22-16.7-22-16.7l-18.4,3.1L40.9,846.7z"/>
				<path id="XMLID_564_" class="st23" d="M11.7,846.1c0,0-23.2-48.3-25-49.8c-1.8-1.5-45.2-24-45.2-24l-20.8,9c0,0,2.4,25.6,0,28.1
					c-2.4,2.5,57.1,52.4,58.9,52.7c1.8,0.2,46.2,24.7,46.2,24.7L11.7,846.1z"/>
				<path id="XMLID_560_" class="st22" d="M-16.8,882.3c0,0-6.8-34.1-9.9-36.4c-3.1-2.4-33.5-26-35.2-25.9
					c-1.8,0.1-20.8,3.6-20.8,3.6v19l70.8,52L-16.8,882.3z"/>
				<path id="XMLID_567_" class="st23" d="M45,956.8c-0.6-0.6-18.9-21.2-19.2-22.5c-0.4-1.3-21.2-7-24.8-6.3
					c-3.6,0.7-4.2,4.7-7.7,10.1s-4.8,16.5,0,17.8c4.8,1.3,62.7,35,62.7,35l-5.4-19.2L45,956.8z"/>
				<polygon id="XMLID_289_" class="st22" points="97.5,627.1 81.6,599.8 49.3,596.1 50.3,619.3 106.4,638.2 				"/>
				<path id="XMLID_286_" class="st22" d="M63.1,628.1c1.7-3.9-23.5-28.4-27-30.5c-3.6-2.1-45.9-22.9-45.9-22.9l-2.2,19.7
					L63.1,628.1z"/>
				<polygon id="XMLID_568_" class="st22" points="-26.8,582.1 -80.3,539.1 -98.3,556 				"/>
				<polygon id="XMLID_573_" class="st23" points="359,803.9 350.3,797.3 344.1,794.4 342.1,797.3 350.3,801.8 				"/>
				<path id="XMLID_579_" class="st22" d="M2.6,715l-14.7-11.2l-17.8-9.3c0,0-5.4,7.1-3.6,7.2c1.8,0.1,11.3,6.4,11.3,6.4L2.6,715z"
					/>
				<polygon id="XMLID_580_" class="st22" points="2.6,736.2 -6.7,730 -9.8,733.1 				"/>
				<polygon id="XMLID_569_" class="st23" points="9.3,767.4 2.6,761.8 -12.1,753.4 -26.8,755.2 -15.6,762.7 2.6,770.3 				"/>
				<polygon id="XMLID_599_" class="st22" points="2.6,789.6 -15.6,777.7 -3.6,788.9 				"/>
				<path id="XMLID_607_" class="st22" d="M40.9,702.2l-9.5-7.5c0,0-13.1-3.8-14.3-4.3s-5.4,4.9-5.4,4.9s10.7,6.4,14.6,7.3
					C30.2,703.5,40.9,702.2,40.9,702.2z"/>
				<path id="XMLID_194_" class="st24" d="M63.1,688.7c0,0-15.1-45-22.3-49.3c-7.1-4.3-78.5-40.5-78.5-40.5l-20.2,12v22.3
					L63.1,688.7z"/>
				<path id="XMLID_705_" class="st25" d="M-57.8,612.5c7.5-1.9,14.9-3.7,22,0.7c24.4,14.4,47,26.4,69.6,40.9
					c2.6,10,7.4,18.7,13.1,27.1l-104.7-48V612.5z"/>
				<polygon id="XMLID_597_" class="st22" points="-42.4,679.3 -51.3,669.3 -62.6,667.4 -62.6,673.7 				"/>
				<path id="XMLID_610_" class="st22" d="M-31.1,993.3c0,0-16.1-35.4-16.4-36.3s-30.2-21.2-31.9-23.6c-1.7-2.4-13.6,2.6-13.6,3.8
					c0,1.2-3,21.1,0,25.9c3,4.8,73.7,50.6,73.7,50.6L-31.1,993.3z"/>
				<path id="XMLID_617_" class="st23" d="M50.3,1044.1c-0.1-4.7-21.3-24.2-21.9-25.9c-0.6-1.7-25.7-12.8-25.7-12.8l-9.4,10.6
					l23.8,20.2L50.3,1044.1z"/>
				<path id="XMLID_647_" class="st21" d="M359,1079c-7.7-2-195.7-121.5-190.9-117.1c4.8,4.4,163.9,117.9,163.9,117.9L359,1079z"/>
				<polygon id="XMLID_780_" class="st21" points="762.1,958.6 735.2,935.9 652.9,903 				"/>
			</g>
		</g>
	</g>
</g>
</svg>
